<?xml version="1.0" encoding="utf-8"?>
<!-- Generator: Adobe Illustrator 21.1.0, SVG Export Plug-In . SVG Version: 6.00 Build 0)  -->
<svg version="1.1" id="Laag_1" xmlns="http://www.w3.org/2000/svg" xmlns:xlink="http://www.w3.org/1999/xlink" x="0px" y="0px"
	 viewBox="0 0 246 106" style="enable-background:new 0 0 246 106;" xml:space="preserve">
<style type="text/css">
	.st0{fill:#D82331;}
</style>
<title>logo</title>
<g>
	<path class="st0" d="M240.2,27.5h-26.4l-14.4,67.8h-23.3l14.4-67.8h-85l3.5-17h134.6L240.2,27.5L240.2,27.5z"/>
	<path class="st0" d="M157.4,61.5l3.5-17h-59.6l-3.5,17L157.4,61.5"/>
	<path class="st0" d="M43.2,27.6h9.5c7.5,0,15.3,0.8,13.2,9.4c-2.1,8.7-9.5,9.2-16.9,9.2h-9.5l-3.9,16.3h9.1
		c9.1,0,11.7,5.8,11.7,14.8c0,6.2,0.2,11.6-0.4,18.1h94.8l3.5-17H79c0-1,0.1-2.4,0.1-3.7c0.1-6,0.2-18.5-12-20.2l0.1-0.5
		c12.6-2.3,19.2-6.8,23.5-21.5c2.6-16.6-11.6-22-28-21.7L47,10.5L43.2,27.6z M2.4,95.5h5.4l18.4-85h-5.4L2.4,95.5z"/>
</g>
</svg>
