<svg xmlns="http://www.w3.org/2000/svg" viewBox="0 0 1249.14 232.58"><defs><style>.cls-1{fill:aqua;}.cls-1,.cls-2,.cls-3{stroke:#000;stroke-miterlimit:10;stroke-width:6.58px;}.cls-2{fill:#ed1c24;}.cls-3{fill:#ff0;}</style></defs><title>onomatopee logo</title><g id="Laag_2" data-name="Laag 2"><g id="logo"><g id="logo-2" data-name="logo"><g id="logo-3" data-name="logo"><path class="cls-1" d="M3.29,67.73A40.36,40.36,0,0,1,8.15,47.62,44.58,44.58,0,0,1,20.88,33.25,55.54,55.54,0,0,1,38.94,24.7a77.45,77.45,0,0,1,20.69-2.82,75,75,0,0,1,20.69,2.91A57,57,0,0,1,98.4,33.44a44.93,44.93,0,0,1,12.73,14.28,39.85,39.85,0,0,1,4.86,20v49.93a39.84,39.84,0,0,1-4.86,20A44.86,44.86,0,0,1,98.4,152a56.94,56.94,0,0,1-18.07,8.65,75,75,0,0,1-20.69,2.91,77.45,77.45,0,0,1-20.69-2.82,55.38,55.38,0,0,1-18.07-8.55A44.51,44.51,0,0,1,8.15,137.77a40.35,40.35,0,0,1-4.86-20.11Zm27.91,50a12.34,12.34,0,0,0,2.43,7.68A19.66,19.66,0,0,0,40,130.73a32.21,32.21,0,0,0,8.95,3.21A49.61,49.61,0,0,0,59.22,135a44.39,44.39,0,0,0,10.21-1.17,36.44,36.44,0,0,0,8.95-3.31,18.41,18.41,0,0,0,6.32-5.35A12.38,12.38,0,0,0,87,117.69v-50a12.79,12.79,0,0,0-2.43-7.78,19.23,19.23,0,0,0-6.32-5.45,32.45,32.45,0,0,0-8.95-3.21A49.84,49.84,0,0,0,59,50.2a44.44,44.44,0,0,0-10.21,1.17A34.87,34.87,0,0,0,40,54.67a19.21,19.21,0,0,0-6.32,5.45,12.47,12.47,0,0,0-2.43,7.59Z"/><path class="cls-1" d="M214.19,73.6V3.29h28.95v137.5H212.83l-41.7-72.25-8.3-18.64-1.93.39,3.67,23.5v67H135.62V3.29h27.92l43.14,75,9.63,24.86,1.93-.39q-.58-3.3-1.25-7.87t-1.25-8.93q-.58-4.37-1.06-7.77A40.28,40.28,0,0,1,214.19,73.6Z"/><path class="cls-1" d="M260.72,95.65a40.36,40.36,0,0,1,4.86-20.11A44.56,44.56,0,0,1,278.3,61.16a55.55,55.55,0,0,1,18.07-8.55,77.46,77.46,0,0,1,20.69-2.82,75,75,0,0,1,20.69,2.91,57,57,0,0,1,18.07,8.65,44.92,44.92,0,0,1,12.73,14.28,39.85,39.85,0,0,1,4.86,20v49.93a39.84,39.84,0,0,1-4.86,20,44.85,44.85,0,0,1-12.73,14.28,56.93,56.93,0,0,1-18.07,8.65,75,75,0,0,1-20.69,2.91,77.46,77.46,0,0,1-20.69-2.82,55.38,55.38,0,0,1-18.07-8.55,44.49,44.49,0,0,1-12.73-14.38,40.35,40.35,0,0,1-4.86-20.11Zm28.95,50a12.34,12.34,0,0,0,2.43,7.68,19.65,19.65,0,0,0,6.32,5.35,32.21,32.21,0,0,0,8.95,3.21,49.61,49.61,0,0,0,10.31,1.07,44.38,44.38,0,0,0,10.21-1.17,36.45,36.45,0,0,0,8.95-3.31,18.41,18.41,0,0,0,6.32-5.35,12.39,12.39,0,0,0,2.33-7.49v-50a12.79,12.79,0,0,0-2.43-7.78,19.23,19.23,0,0,0-6.32-5.45,32.45,32.45,0,0,0-8.95-3.21,49.84,49.84,0,0,0-10.31-1.07,44.44,44.44,0,0,0-10.21,1.17,34.87,34.87,0,0,0-8.85,3.31A19.2,19.2,0,0,0,292.1,88a12.47,12.47,0,0,0-2.43,7.59Z"/><path class="cls-1" d="M425.1,147H396.15V9.5h28.7l33.87,79L493,9.5h30.33V147H494.36V91.82l3.48-26.5h-2.13l-6.58,19.15-18.76,43.91H449.55l-19-44.24-6.6-18.82H422l3.1,26.58Z"/><path class="cls-1" d="M658.75,171.81H628.38l-11.87-31h-40.4l-11.3,31H533.87L582,34.31h27.38ZM583,113.91h26.47l-8.76-30-4.28-19.65H595l-4.28,19.85Z"/><path class="cls-1" d="M713.54,42.58V151.13H684.59V42.58H645.3V13.63H752.82V42.58Z"/><path class="cls-1" d="M763.16,67.73A40.36,40.36,0,0,1,768,47.62a44.56,44.56,0,0,1,12.73-14.38,55.55,55.55,0,0,1,18.07-8.55,77.46,77.46,0,0,1,20.69-2.82,75,75,0,0,1,20.69,2.91,57,57,0,0,1,18.07,8.65A44.92,44.92,0,0,1,871,47.72a39.85,39.85,0,0,1,4.86,20v49.93a39.84,39.84,0,0,1-4.86,20A44.85,44.85,0,0,1,858.27,152a56.93,56.93,0,0,1-18.07,8.65,75,75,0,0,1-20.69,2.91,77.46,77.46,0,0,1-20.69-2.82,55.38,55.38,0,0,1-18.07-8.55A44.49,44.49,0,0,1,768,137.77a40.35,40.35,0,0,1-4.86-20.11Zm27.91,50a12.34,12.34,0,0,0,2.43,7.68,19.65,19.65,0,0,0,6.32,5.35,32.21,32.21,0,0,0,8.95,3.21A49.61,49.61,0,0,0,819.09,135a44.38,44.38,0,0,0,10.21-1.17,36.45,36.45,0,0,0,8.95-3.31,18.41,18.41,0,0,0,6.32-5.35,12.39,12.39,0,0,0,2.33-7.49v-50a12.79,12.79,0,0,0-2.43-7.78,19.23,19.23,0,0,0-6.32-5.45,32.45,32.45,0,0,0-8.95-3.21,49.84,49.84,0,0,0-10.31-1.07,44.44,44.44,0,0,0-10.21,1.17,34.87,34.87,0,0,0-8.85,3.31,19.2,19.2,0,0,0-6.32,5.45,12.47,12.47,0,0,0-2.43,7.59Z"/><path class="cls-1" d="M895.49,13.63h53.78q16.53,0,27.43,7.1A46.31,46.31,0,0,1,993,38.43a49.33,49.33,0,0,1,5.45,22.85,48.59,48.59,0,0,1-5.54,22.85,46.32,46.32,0,0,1-16.44,17.6q-10.89,7-27,7H923.41v42.39H895.49Zm53.65,68.23A21.53,21.53,0,0,0,960.76,79a19.2,19.2,0,0,0,7-7.26,20.51,20.51,0,0,0,0-19,19.2,19.2,0,0,0-7-7.26,21.53,21.53,0,0,0-11.61-2.9H923.41V81.86Z"/><path class="cls-1" d="M1043.33,68.42h58.93V96.34h-58.93v26.88h65.13v27.91h-93V13.63h93V41.54h-65.13Z"/><path class="cls-1" d="M1157.05,80.83H1216v27.91h-58.93v26.88h64.1v27.91h-93V26h93V54h-64.1Z"/></g><g id="logo-4" data-name="logo"><path class="cls-2" d="M28,84.19a40.36,40.36,0,0,1,4.86-20.11A44.58,44.58,0,0,1,45.57,49.71a55.54,55.54,0,0,1,18.07-8.55,77.45,77.45,0,0,1,20.69-2.82A75,75,0,0,1,105,41.26a57,57,0,0,1,18.07,8.65,44.93,44.93,0,0,1,12.73,14.28,39.85,39.85,0,0,1,4.86,20v49.93a39.84,39.84,0,0,1-4.86,20,44.86,44.86,0,0,1-12.73,14.28A56.94,56.94,0,0,1,105,177.06,75,75,0,0,1,84.33,180a77.45,77.45,0,0,1-20.69-2.82,55.38,55.38,0,0,1-18.07-8.55,44.51,44.51,0,0,1-12.73-14.38A40.35,40.35,0,0,1,28,134.13Zm27.91,50a12.34,12.34,0,0,0,2.43,7.68,19.66,19.66,0,0,0,6.32,5.35,32.21,32.21,0,0,0,8.95,3.21,49.61,49.61,0,0,0,10.31,1.07,44.39,44.39,0,0,0,10.21-1.17,36.44,36.44,0,0,0,8.95-3.31,18.41,18.41,0,0,0,6.32-5.35,12.38,12.38,0,0,0,2.34-7.49v-50a12.79,12.79,0,0,0-2.43-7.78A19.23,19.23,0,0,0,103,70.94,32.45,32.45,0,0,0,94,67.73a49.84,49.84,0,0,0-10.31-1.07A44.44,44.44,0,0,0,73.5,67.83a34.87,34.87,0,0,0-8.85,3.31,19.21,19.21,0,0,0-6.32,5.45,12.47,12.47,0,0,0-2.43,7.59Z"/><path class="cls-2" d="M238.89,90.06V19.75h28.95v137.5H237.53L195.83,85l-8.3-18.64-1.93.39,3.67,23.5v67H160.32V19.75h27.92l43.14,75L241,119.58l1.93-.39q-.58-3.3-1.25-7.87t-1.25-8.93q-.58-4.37-1.06-7.77A40.28,40.28,0,0,1,238.89,90.06Z"/><path class="cls-2" d="M285.41,112.11A40.36,40.36,0,0,1,290.27,92,44.56,44.56,0,0,1,303,77.62a55.55,55.55,0,0,1,18.07-8.55,77.46,77.46,0,0,1,20.69-2.82,75,75,0,0,1,20.69,2.91,57,57,0,0,1,18.07,8.65A44.92,44.92,0,0,1,393.24,92.1a39.85,39.85,0,0,1,4.86,20V162a39.84,39.84,0,0,1-4.86,20,44.85,44.85,0,0,1-12.73,14.28A56.93,56.93,0,0,1,362.45,205a75,75,0,0,1-20.69,2.91,77.46,77.46,0,0,1-20.69-2.82A55.38,55.38,0,0,1,303,196.53a44.49,44.49,0,0,1-12.73-14.38A40.35,40.35,0,0,1,285.41,162Zm28.95,50a12.34,12.34,0,0,0,2.43,7.68,19.65,19.65,0,0,0,6.32,5.35,32.21,32.21,0,0,0,8.95,3.21,49.61,49.61,0,0,0,10.31,1.07,44.38,44.38,0,0,0,10.21-1.17,36.45,36.45,0,0,0,8.95-3.31,18.41,18.41,0,0,0,6.32-5.35,12.39,12.39,0,0,0,2.33-7.49v-50a12.79,12.79,0,0,0-2.43-7.78,19.23,19.23,0,0,0-6.32-5.45,32.45,32.45,0,0,0-8.95-3.21,49.84,49.84,0,0,0-10.31-1.07A44.44,44.44,0,0,0,332,95.74,34.87,34.87,0,0,0,323.11,99a19.2,19.2,0,0,0-6.32,5.45,12.47,12.47,0,0,0-2.43,7.59Z"/><path class="cls-2" d="M449.79,163.46H420.84V26h28.7l33.87,79,34.26-79H548v137.5H519.06V108.29l3.48-26.5h-2.13l-6.58,19.15-18.76,43.91H474.24l-19-44.24-6.6-18.82h-1.94l3.1,26.58Z"/><path class="cls-2" d="M683.44,188.27H653.08l-11.87-31h-40.4l-11.3,31H558.57l48.16-137.5h27.38Zm-75.77-57.89h26.47l-8.76-30L621.1,80.75h-1.36l-4.28,19.85Z"/><path class="cls-2" d="M738.23,59V167.59H709.28V59H670V30.09H777.52V59Z"/><path class="cls-2" d="M787.85,84.19a40.36,40.36,0,0,1,4.86-20.11,44.56,44.56,0,0,1,12.73-14.38,55.55,55.55,0,0,1,18.07-8.55,77.46,77.46,0,0,1,20.69-2.82,75,75,0,0,1,20.69,2.91A57,57,0,0,1,883,49.9a44.92,44.92,0,0,1,12.73,14.28,39.85,39.85,0,0,1,4.86,20v49.93a39.84,39.84,0,0,1-4.86,20A44.85,44.85,0,0,1,883,168.42a56.93,56.93,0,0,1-18.07,8.65A75,75,0,0,1,844.2,180a77.46,77.46,0,0,1-20.69-2.82,55.38,55.38,0,0,1-18.07-8.55,44.49,44.49,0,0,1-12.73-14.38,40.35,40.35,0,0,1-4.86-20.11Zm27.91,50a12.34,12.34,0,0,0,2.43,7.68,19.65,19.65,0,0,0,6.32,5.35,32.21,32.21,0,0,0,8.95,3.21,49.61,49.61,0,0,0,10.31,1.07A44.38,44.38,0,0,0,854,150.3a36.45,36.45,0,0,0,8.95-3.31,18.41,18.41,0,0,0,6.32-5.35,12.39,12.39,0,0,0,2.33-7.49v-50a12.79,12.79,0,0,0-2.43-7.78,19.23,19.23,0,0,0-6.32-5.45,32.45,32.45,0,0,0-8.95-3.21,49.84,49.84,0,0,0-10.31-1.07,44.44,44.44,0,0,0-10.21,1.17,34.87,34.87,0,0,0-8.85,3.31,19.2,19.2,0,0,0-6.32,5.45,12.47,12.47,0,0,0-2.43,7.59Z"/><path class="cls-2" d="M920.19,30.09H974q16.53,0,27.43,7.1a46.31,46.31,0,0,1,16.34,17.7,49.33,49.33,0,0,1,5.45,22.85,48.59,48.59,0,0,1-5.54,22.85,46.32,46.32,0,0,1-16.44,17.6q-10.89,7-27,7H948.1v42.39H920.19Zm53.65,68.23a21.53,21.53,0,0,0,11.61-2.9,19.2,19.2,0,0,0,7-7.26,20.51,20.51,0,0,0,0-19,19.2,19.2,0,0,0-7-7.26A21.53,21.53,0,0,0,973.84,59H948.1V98.33Z"/><path class="cls-2" d="M1068,84.89H1127V112.8H1068v26.88h65.13v27.91h-93V30.09h93V58H1068Z"/><path class="cls-2" d="M1181.75,97.29h58.93v27.91h-58.93v26.88h64.1V180h-93V42.5h93V70.41h-64.1Z"/></g><path class="cls-3" d="M13.17,105.59A40.36,40.36,0,0,1,18,85.49,44.58,44.58,0,0,1,30.75,71.11a55.54,55.54,0,0,1,18.07-8.55,77.45,77.45,0,0,1,20.69-2.82A75,75,0,0,1,90.2,62.66a57,57,0,0,1,18.07,8.65A44.93,44.93,0,0,1,121,85.58a39.85,39.85,0,0,1,4.86,20v49.93a39.84,39.84,0,0,1-4.86,20,44.86,44.86,0,0,1-12.73,14.28,56.94,56.94,0,0,1-18.07,8.65,75,75,0,0,1-20.69,2.91,77.45,77.45,0,0,1-20.69-2.82A55.38,55.38,0,0,1,30.75,190,44.51,44.51,0,0,1,18,175.64a40.35,40.35,0,0,1-4.86-20.11Zm27.91,50a12.34,12.34,0,0,0,2.43,7.68,19.66,19.66,0,0,0,6.32,5.35,32.21,32.21,0,0,0,8.95,3.21,49.61,49.61,0,0,0,10.31,1.07,44.39,44.39,0,0,0,10.21-1.17,36.44,36.44,0,0,0,8.95-3.31A18.41,18.41,0,0,0,94.57,163a12.38,12.38,0,0,0,2.34-7.49v-50a12.79,12.79,0,0,0-2.43-7.78,19.23,19.23,0,0,0-6.32-5.45,32.45,32.45,0,0,0-8.95-3.21A49.84,49.84,0,0,0,68.9,88.06a44.44,44.44,0,0,0-10.21,1.17,34.87,34.87,0,0,0-8.85,3.31A19.21,19.21,0,0,0,43.51,98a12.47,12.47,0,0,0-2.43,7.59Z"/><path class="cls-3" d="M224.07,111.46V41.15H253v137.5H222.71L181,106.41l-8.3-18.64-1.93.39,3.67,23.5v67H145.5V41.15h27.92l43.14,75L226.19,141l1.93-.39q-.58-3.3-1.25-7.87t-1.25-8.93q-.58-4.37-1.06-7.77A40.28,40.28,0,0,1,224.07,111.46Z"/><path class="cls-3" d="M270.59,133.51a40.36,40.36,0,0,1,4.86-20.11A44.56,44.56,0,0,1,288.18,99a55.55,55.55,0,0,1,18.07-8.55,77.46,77.46,0,0,1,20.69-2.82,75,75,0,0,1,20.69,2.91,57,57,0,0,1,18.07,8.65,44.92,44.92,0,0,1,12.73,14.28,39.85,39.85,0,0,1,4.86,20v49.93a39.84,39.84,0,0,1-4.86,20,44.85,44.85,0,0,1-12.73,14.28,56.93,56.93,0,0,1-18.07,8.65,75,75,0,0,1-20.69,2.91,77.46,77.46,0,0,1-20.69-2.82,55.38,55.38,0,0,1-18.07-8.55,44.49,44.49,0,0,1-12.73-14.38,40.35,40.35,0,0,1-4.86-20.11Zm28.95,50a12.34,12.34,0,0,0,2.43,7.68,19.65,19.65,0,0,0,6.32,5.35,32.21,32.21,0,0,0,8.95,3.21,49.61,49.61,0,0,0,10.31,1.07,44.38,44.38,0,0,0,10.21-1.17,36.45,36.45,0,0,0,8.95-3.31A18.41,18.41,0,0,0,353,191a12.39,12.39,0,0,0,2.33-7.49v-50a12.79,12.79,0,0,0-2.43-7.78,19.23,19.23,0,0,0-6.32-5.45,32.45,32.45,0,0,0-8.95-3.21A49.84,49.84,0,0,0,327.36,116a44.44,44.44,0,0,0-10.21,1.17,34.87,34.87,0,0,0-8.85,3.31,19.2,19.2,0,0,0-6.32,5.45,12.47,12.47,0,0,0-2.43,7.59Z"/><path class="cls-3" d="M435,184.86H406V47.36h28.7l33.87,79,34.26-79h30.33v137.5H504.24V129.69l3.48-26.5H505.6L499,122.34l-18.76,43.91H459.42l-19-44.24-6.6-18.82h-1.94l3.1,26.58Z"/><path class="cls-3" d="M668.63,209.67H638.26l-11.87-31H586l-11.3,31H543.75l48.16-137.5H619.3Zm-75.77-57.89h26.47l-8.76-30-4.28-19.65h-1.36L600.64,122Z"/><path class="cls-3" d="M723.41,80.44V189H694.47V80.44H655.18V51.49H762.7V80.44Z"/><path class="cls-3" d="M773,105.59a40.36,40.36,0,0,1,4.86-20.11,44.56,44.56,0,0,1,12.73-14.38,55.55,55.55,0,0,1,18.07-8.55,77.46,77.46,0,0,1,20.69-2.82,75,75,0,0,1,20.69,2.91,57,57,0,0,1,18.07,8.65,44.92,44.92,0,0,1,12.73,14.28,39.85,39.85,0,0,1,4.86,20v49.93a39.84,39.84,0,0,1-4.86,20,44.85,44.85,0,0,1-12.73,14.28,56.93,56.93,0,0,1-18.07,8.65,75,75,0,0,1-20.69,2.91,77.46,77.46,0,0,1-20.69-2.82A55.38,55.38,0,0,1,790.62,190a44.49,44.49,0,0,1-12.73-14.38A40.35,40.35,0,0,1,773,155.53Zm27.91,50a12.34,12.34,0,0,0,2.43,7.68,19.65,19.65,0,0,0,6.32,5.35,32.21,32.21,0,0,0,8.95,3.21A49.61,49.61,0,0,0,829,172.87a44.38,44.38,0,0,0,10.21-1.17,36.45,36.45,0,0,0,8.95-3.31,18.41,18.41,0,0,0,6.32-5.35,12.39,12.39,0,0,0,2.33-7.49v-50a12.79,12.79,0,0,0-2.43-7.78A19.23,19.23,0,0,0,848,92.34a32.45,32.45,0,0,0-8.95-3.21,49.84,49.84,0,0,0-10.31-1.07,44.44,44.44,0,0,0-10.21,1.17,34.87,34.87,0,0,0-8.85,3.31A19.2,19.2,0,0,0,803.38,98a12.47,12.47,0,0,0-2.43,7.59Z"/><path class="cls-3" d="M905.37,51.49h53.78q16.53,0,27.43,7.1a46.31,46.31,0,0,1,16.34,17.7,49.33,49.33,0,0,1,5.45,22.85,48.59,48.59,0,0,1-5.54,22.85,46.32,46.32,0,0,1-16.44,17.6q-10.89,7-27,7H933.28V189H905.37ZM959,119.73a21.53,21.53,0,0,0,11.61-2.9,19.2,19.2,0,0,0,7-7.26,20.51,20.51,0,0,0,0-19,19.2,19.2,0,0,0-7-7.26A21.53,21.53,0,0,0,959,80.44H933.28v39.29Z"/><path class="cls-3" d="M1053.21,106.29h58.93V134.2h-58.93v26.88h65.13V189h-93V51.49h93V79.41h-65.13Z"/><path class="cls-3" d="M1166.93,118.69h58.93V146.6h-58.93v26.88H1231V201.4h-93V63.9h93V91.81h-64.1Z"/></g></g></g></svg>