<svg xmlns="http://www.w3.org/2000/svg" width="1920" height="213.754" viewBox="0 0 1920 213.754">
  <g id="onomatopee" transform="translate(1.13 -0.419)">
    <rect id="witte_achtergrond" data-name="witte achtergrond" width="1920" height="127.581" transform="translate(-1.13 0.419)" fill="#f5f5f6"/>
    <g id="onomatopee_logo" data-name="onomatopee logo" transform="translate(498.601 44.679)">
      <g id="logo" transform="translate(0 0)">
        <g id="logo-2" data-name="logo">
          <g id="logo-3" data-name="logo">
            <path id="Path_22" data-name="Path 22" d="M3.287,55.868a29.918,29.918,0,0,1,3.6-14.907,33.047,33.047,0,0,1,9.437-10.652A41.171,41.171,0,0,1,29.715,23.97a57.413,57.413,0,0,1,15.337-2.09A55.6,55.6,0,0,1,60.39,24.037a42.254,42.254,0,0,1,13.4,6.412,33.306,33.306,0,0,1,9.437,10.586,29.541,29.541,0,0,1,3.6,14.826V92.874a29.533,29.533,0,0,1-3.6,14.826,33.254,33.254,0,0,1-9.437,10.638,42.209,42.209,0,0,1-13.4,6.412,55.6,55.6,0,0,1-15.337,2.157,57.414,57.414,0,0,1-15.337-2.09,41.053,41.053,0,0,1-13.4-6.338A32.995,32.995,0,0,1,6.89,107.788a29.911,29.911,0,0,1-3.6-14.907ZM23.977,92.933a9.148,9.148,0,0,0,1.8,5.693A14.574,14.574,0,0,0,30.5,102.57a23.876,23.876,0,0,0,6.635,2.38,36.774,36.774,0,0,0,7.613.786,32.906,32.906,0,0,0,7.569-.867,27.013,27.013,0,0,0,6.635-2.454,13.647,13.647,0,0,0,4.685-3.966,9.177,9.177,0,0,0,1.7-5.545V55.839a9.481,9.481,0,0,0-1.8-5.767,14.256,14.256,0,0,0-4.685-4.04,24.055,24.055,0,0,0-6.635-2.38,36.946,36.946,0,0,0-7.635-.778,32.944,32.944,0,0,0-7.569.867A25.849,25.849,0,0,0,30.5,46.187a14.24,14.24,0,0,0-4.685,4.04,9.244,9.244,0,0,0-1.8,5.626Z" transform="translate(-3.28 -8.099)" fill="aqua" stroke="#000" stroke-miterlimit="10" stroke-width="4"/>
            <path id="Path_23" data-name="Path 23" d="M193.863,55.41V3.29h21.46V105.218H192.855L161.943,51.659l-6.153-13.818-1.431.289,2.721,17.42v49.667H135.62V3.29h20.7l31.979,55.6,7.139,18.429,1.431-.289q-.43-2.446-.927-5.834t-.927-6.62q-.43-3.239-.786-5.76a29.87,29.87,0,0,1-.363-3.4Z" transform="translate(-37.517 -3.29)" fill="aqua" stroke="#000" stroke-miterlimit="10" stroke-width="4"/>
            <path id="Path_24" data-name="Path 24" d="M260.715,83.786a29.92,29.92,0,0,1,3.6-14.907,33.032,33.032,0,0,1,9.429-10.66,41.178,41.178,0,0,1,13.4-6.338,57.42,57.42,0,0,1,15.337-2.09,55.6,55.6,0,0,1,15.338,2.157,42.254,42.254,0,0,1,13.394,6.412,33.3,33.3,0,0,1,9.437,10.586,29.541,29.541,0,0,1,3.6,14.826v37.013a29.534,29.534,0,0,1-3.6,14.826,33.25,33.25,0,0,1-9.437,10.586,42.2,42.2,0,0,1-13.4,6.412,55.6,55.6,0,0,1-15.337,2.157,57.418,57.418,0,0,1-15.337-2.09,41.052,41.052,0,0,1-13.4-6.338,32.979,32.979,0,0,1-9.437-10.66,29.911,29.911,0,0,1-3.6-14.907Zm21.46,37.065a9.147,9.147,0,0,0,1.8,5.693,14.567,14.567,0,0,0,4.685,3.966,23.876,23.876,0,0,0,6.635,2.38,36.777,36.777,0,0,0,7.643.793,32.9,32.9,0,0,0,7.569-.867,27.019,27.019,0,0,0,6.635-2.454,13.648,13.648,0,0,0,4.685-3.966,9.184,9.184,0,0,0,1.727-5.552V83.778a9.481,9.481,0,0,0-1.8-5.767,14.258,14.258,0,0,0-4.685-4.04,24.057,24.057,0,0,0-6.635-2.38,36.948,36.948,0,0,0-7.643-.793,32.942,32.942,0,0,0-7.569.867,25.85,25.85,0,0,0-6.56,2.454,14.232,14.232,0,0,0-4.685,4,9.243,9.243,0,0,0-1.8,5.626Z" transform="translate(-69.877 -15.32)" fill="aqua" stroke="#000" stroke-miterlimit="10" stroke-width="4"/>
            <path id="Path_25" data-name="Path 25" d="M417.61,111.428H396.15V9.5h21.275l25.108,58.562L467.944,9.5h22.483V111.428H468.952v-40.9l2.58-19.644h-1.579l-4.878,14.2-13.906,32.55H435.735L421.65,64.83l-4.892-13.951h-1.446l2.3,19.7Z" transform="translate(-104.919 -4.897)" fill="aqua" stroke="#000" stroke-miterlimit="10" stroke-width="4"/>
            <path id="Path_26" data-name="Path 26" d="M626.442,136.238H603.93l-8.8-22.98H565.182l-8.377,22.98H533.87L569.548,34.31h20.3ZM570.289,93.317h19.622l-6.494-22.239-3.173-14.566h-1.06l-3.173,14.715Z" transform="translate(-140.548 -11.315)" fill="aqua" stroke="#000" stroke-miterlimit="10" stroke-width="4"/>
            <path id="Path_27" data-name="Path 27" d="M695.886,35.09v80.467h-21.46V35.09H645.3V13.63H725V35.09Z" transform="translate(-169.376 -5.965)" fill="aqua" stroke="#000" stroke-miterlimit="10" stroke-width="4"/>
            <path id="Path_28" data-name="Path 28" d="M763.152,55.866a29.919,29.919,0,0,1,3.588-14.907,33.033,33.033,0,0,1,9.437-10.66,41.177,41.177,0,0,1,13.4-6.338,57.421,57.421,0,0,1,15.338-2.09,55.6,55.6,0,0,1,15.338,2.157,42.256,42.256,0,0,1,13.395,6.412,33.3,33.3,0,0,1,9.451,10.593,29.541,29.541,0,0,1,3.6,14.826V92.871a29.53,29.53,0,0,1-3.6,14.826,33.248,33.248,0,0,1-9.436,10.638,42.207,42.207,0,0,1-13.4,6.412,55.6,55.6,0,0,1-15.337,2.157,57.419,57.419,0,0,1-15.337-2.09,41.05,41.05,0,0,1-13.4-6.338,32.977,32.977,0,0,1-9.451-10.689,29.909,29.909,0,0,1-3.6-14.907ZM783.842,92.93a9.147,9.147,0,0,0,1.8,5.693,14.565,14.565,0,0,0,4.685,3.966,23.879,23.879,0,0,0,6.635,2.38,36.775,36.775,0,0,0,7.65.764,32.9,32.9,0,0,0,7.569-.867,27.019,27.019,0,0,0,6.635-2.454,13.648,13.648,0,0,0,4.685-3.966,9.186,9.186,0,0,0,1.727-5.552V55.829a9.478,9.478,0,0,0-1.8-5.767,14.254,14.254,0,0,0-4.685-4.04,24.052,24.052,0,0,0-6.635-2.38,36.943,36.943,0,0,0-7.643-.793,32.94,32.94,0,0,0-7.568.867,25.848,25.848,0,0,0-6.561,2.454,14.231,14.231,0,0,0-4.685,4.04,9.245,9.245,0,0,0-1.8,5.626Z" transform="translate(-199.86 -8.097)" fill="aqua" stroke="#000" stroke-miterlimit="10" stroke-width="4"/>
            <path id="Path_29" data-name="Path 29" d="M895.49,13.63h39.867q12.254,0,20.334,5.263a34.331,34.331,0,0,1,12.083,13.121,36.57,36.57,0,0,1,4.04,16.938,36.023,36.023,0,0,1-4.107,16.939A34.339,34.339,0,0,1,955.52,78.938q-8.073,5.189-20.015,5.189H916.187V115.55h-20.7ZM935.26,64.208a15.96,15.96,0,0,0,8.614-2.12,14.232,14.232,0,0,0,5.189-5.382,15.2,15.2,0,0,0,0-14.085,14.232,14.232,0,0,0-5.189-5.382,15.96,15.96,0,0,0-8.606-2.15H916.187V64.208Z" transform="translate(-234.102 -5.965)" fill="aqua" stroke="#000" stroke-miterlimit="10" stroke-width="4"/>
            <path id="Path_30" data-name="Path 30" d="M1036.12,54.245H1079.8v20.7H1036.12V94.868h48.28v20.689h-68.94V13.63h68.94V34.319h-48.28Z" transform="translate(-265.139 -5.965)" fill="aqua" stroke="#000" stroke-miterlimit="10" stroke-width="4"/>
            <path id="Path_31" data-name="Path 31" d="M1149.578,66.645h43.7V87.335h-43.684V107.26h47.516V127.95h-68.94V26h68.94V46.756h-47.516Z" transform="translate(-294.298 -9.165)" fill="aqua" stroke="#000" stroke-miterlimit="10" stroke-width="4"/>
          </g>
          <g id="logo-4" data-name="logo" transform="translate(18.317 12.202)">
            <path id="Path_32" data-name="Path 32" d="M28,72.328a29.918,29.918,0,0,1,3.6-14.907,33.047,33.047,0,0,1,9.422-10.652,41.172,41.172,0,0,1,13.4-6.338,57.413,57.413,0,0,1,15.337-2.09A55.6,55.6,0,0,1,85.077,40.5a42.253,42.253,0,0,1,13.4,6.412A33.306,33.306,0,0,1,107.908,57.5a29.541,29.541,0,0,1,3.6,14.826v37.013a29.534,29.534,0,0,1-3.6,14.826,33.255,33.255,0,0,1-9.437,10.586,42.21,42.21,0,0,1-13.4,6.42,55.6,55.6,0,0,1-15.322,2.179,57.415,57.415,0,0,1-15.337-2.09,41.054,41.054,0,0,1-13.4-6.338,33,33,0,0,1-9.437-10.66A29.911,29.911,0,0,1,28,109.348Zm20.689,37.065a9.147,9.147,0,0,0,1.8,5.693,14.574,14.574,0,0,0,4.685,3.966,23.877,23.877,0,0,0,6.635,2.38,36.775,36.775,0,0,0,7.643.793,32.909,32.909,0,0,0,7.569-.867,27.013,27.013,0,0,0,6.635-2.454,13.647,13.647,0,0,0,4.685-3.966,9.177,9.177,0,0,0,1.735-5.552V72.321a9.481,9.481,0,0,0-1.8-5.767,14.255,14.255,0,0,0-4.678-4.047,24.055,24.055,0,0,0-6.672-2.38,36.945,36.945,0,0,0-7.643-.793,32.943,32.943,0,0,0-7.554.867,25.849,25.849,0,0,0-6.56,2.454,14.24,14.24,0,0,0-4.685,4.04,9.244,9.244,0,0,0-1.8,5.626Z" transform="translate(-27.989 -24.559)" fill="#ed1c24" stroke="#000" stroke-miterlimit="10" stroke-width="4"/>
            <path id="Path_33" data-name="Path 33" d="M218.563,71.87V19.75h21.46V121.678H217.555L186.643,68.119,180.491,54.3l-1.431.289,2.721,17.42v49.667H160.32V19.75h20.7L213,75.347l7.131,18.406,1.431-.289q-.43-2.446-.927-5.834t-.927-6.62q-.43-3.239-.786-5.76A29.847,29.847,0,0,1,218.563,71.87Z" transform="translate(-62.224 -19.75)" fill="#ed1c24" stroke="#000" stroke-miterlimit="10" stroke-width="4"/>
            <path id="Path_34" data-name="Path 34" d="M285.407,100.246a29.92,29.92,0,0,1,3.6-14.907,33.032,33.032,0,0,1,9.437-10.66,41.177,41.177,0,0,1,13.4-6.338,57.419,57.419,0,0,1,15.337-2.09,55.6,55.6,0,0,1,15.338,2.157,42.252,42.252,0,0,1,13.394,6.412,33.3,33.3,0,0,1,9.429,10.593,29.538,29.538,0,0,1,3.6,14.826v36.99a29.533,29.533,0,0,1-3.6,14.826A33.248,33.248,0,0,1,355.9,162.64a42.2,42.2,0,0,1-13.388,6.464,55.6,55.6,0,0,1-15.337,2.157,57.422,57.422,0,0,1-15.337-2.09,41.052,41.052,0,0,1-13.4-6.345,32.98,32.98,0,0,1-9.437-10.66,29.911,29.911,0,0,1-3.6-14.937Zm21.46,37.065a9.147,9.147,0,0,0,1.8,5.693,14.566,14.566,0,0,0,4.685,3.966,23.88,23.88,0,0,0,6.635,2.38,36.774,36.774,0,0,0,7.643.793,32.9,32.9,0,0,0,7.569-.867,27.021,27.021,0,0,0,6.635-2.454,13.647,13.647,0,0,0,4.685-3.966,9.185,9.185,0,0,0,1.727-5.552V100.238a9.482,9.482,0,0,0-1.8-5.767,14.255,14.255,0,0,0-4.685-4.04,24.053,24.053,0,0,0-6.634-2.38,36.948,36.948,0,0,0-7.643-.793,32.944,32.944,0,0,0-7.539.852,25.845,25.845,0,0,0-6.59,2.417,14.232,14.232,0,0,0-4.685,4.04,9.245,9.245,0,0,0-1.8,5.626Z" transform="translate(-94.583 -31.78)" fill="#ed1c24" stroke="#000" stroke-miterlimit="10" stroke-width="4"/>
            <path id="Path_35" data-name="Path 35" d="M442.3,127.9H420.84V26h21.275l25.107,58.562L492.619,26H515.1V127.928H493.65V87l2.58-19.644H494.65l-4.878,14.2L475.866,114.1H460.425L446.34,81.308l-4.892-13.951H440.01l2.3,19.7Z" transform="translate(-129.623 -21.367)" fill="#ed1c24" stroke="#000" stroke-miterlimit="10" stroke-width="4"/>
            <path id="Path_36" data-name="Path 36" d="M651.135,152.7H628.63l-8.8-22.98H589.882l-8.376,22.98H558.57l35.7-101.928h20.3Zm-56.168-42.913h19.622L608.1,87.546l-3.173-14.552h-1.008l-3.173,14.715Z" transform="translate(-165.254 -27.775)" fill="#ed1c24" stroke="#000" stroke-miterlimit="10" stroke-width="4"/>
            <path id="Path_37" data-name="Path 37" d="M720.578,51.521v80.5h-21.46v-80.5H670V30.09h79.7V51.521Z" transform="translate(-194.082 -22.425)" fill="#ed1c24" stroke="#000" stroke-miterlimit="10" stroke-width="4"/>
            <path id="Path_38" data-name="Path 38" d="M787.847,72.326a29.92,29.92,0,0,1,3.6-14.907,33.033,33.033,0,0,1,9.437-10.66,41.178,41.178,0,0,1,13.4-6.338,57.421,57.421,0,0,1,15.338-2.09,55.6,55.6,0,0,1,15.338,2.157,42.252,42.252,0,0,1,13.424,6.419,33.3,33.3,0,0,1,9.437,10.586,29.544,29.544,0,0,1,3.6,14.826v37.013a29.535,29.535,0,0,1-3.6,14.826,33.248,33.248,0,0,1-9.437,10.608,42.2,42.2,0,0,1-13.4,6.412,55.6,55.6,0,0,1-15.367,2.172,57.421,57.421,0,0,1-15.337-2.091,41.05,41.05,0,0,1-13.4-6.338,32.978,32.978,0,0,1-9.437-10.66,29.915,29.915,0,0,1-3.6-14.907Zm20.69,37.065a9.147,9.147,0,0,0,1.8,5.693,14.566,14.566,0,0,0,4.685,3.966,23.88,23.88,0,0,0,6.634,2.38,36.779,36.779,0,0,0,7.643.793,32.9,32.9,0,0,0,7.584-.89,27.022,27.022,0,0,0,6.634-2.454,13.645,13.645,0,0,0,4.685-3.966,9.183,9.183,0,0,0,1.727-5.552V72.3a9.481,9.481,0,0,0-1.8-5.767,14.26,14.26,0,0,0-4.685-4.04,24.057,24.057,0,0,0-6.635-2.38,36.945,36.945,0,0,0-7.643-.793,32.942,32.942,0,0,0-7.569.867,25.848,25.848,0,0,0-6.56,2.454,14.232,14.232,0,0,0-4.685,4.04,9.245,9.245,0,0,0-1.8,5.626Z" transform="translate(-224.568 -24.557)" fill="#ed1c24" stroke="#000" stroke-miterlimit="10" stroke-width="4"/>
            <path id="Path_39" data-name="Path 39" d="M920.19,30.09h39.889q12.253,0,20.333,5.263a34.327,34.327,0,0,1,12.113,13.121,36.57,36.57,0,0,1,4.04,16.939,36.024,36.024,0,0,1-4.107,16.939A34.334,34.334,0,0,1,980.272,95.4q-8.072,5.189-20.015,5.189H940.879V132.01H920.19Zm39.77,50.578a15.96,15.96,0,0,0,8.606-2.15,14.234,14.234,0,0,0,5.189-5.382,15.2,15.2,0,0,0,0-14.085,14.234,14.234,0,0,0-5.189-5.382,15.96,15.96,0,0,0-8.606-2.15H940.879V80.676Z" transform="translate(-258.808 -22.425)" fill="#ed1c24" stroke="#000" stroke-miterlimit="10" stroke-width="4"/>
            <path id="Path_40" data-name="Path 40" d="M1060.79,70.713h43.736V91.4H1060.79v19.926h48.28v20.689h-68.94V30.09h68.94V50.779h-48.28Z" transform="translate(-289.838 -22.425)" fill="#ed1c24" stroke="#000" stroke-miterlimit="10" stroke-width="4"/>
            <path id="Path_41" data-name="Path 41" d="M1174.273,83.115h43.685V103.8h-43.685v19.926h47.517v20.7h-68.94V42.5h68.94V63.189h-47.517Z" transform="translate(-319 -25.636)" fill="#ed1c24" stroke="#000" stroke-miterlimit="10" stroke-width="4"/>
          </g>
          <path id="Path_42" data-name="Path 42" d="M13.16,93.728a29.919,29.919,0,0,1,3.58-14.9,33.047,33.047,0,0,1,9.451-10.66,41.172,41.172,0,0,1,13.4-6.338,57.414,57.414,0,0,1,15.337-2.09A55.6,55.6,0,0,1,70.261,61.9a42.253,42.253,0,0,1,13.4,6.412A33.307,33.307,0,0,1,93.093,78.9a29.541,29.541,0,0,1,3.6,14.826v37.013a29.533,29.533,0,0,1-3.6,14.826,33.255,33.255,0,0,1-9.437,10.586,42.209,42.209,0,0,1-13.4,6.412,55.6,55.6,0,0,1-15.337,2.157,57.412,57.412,0,0,1-15.337-2.09,41.053,41.053,0,0,1-13.4-6.323,33,33,0,0,1-9.451-10.645,29.911,29.911,0,0,1-3.6-14.907Zm20.689,37.065a9.147,9.147,0,0,0,1.8,5.693,14.574,14.574,0,0,0,4.685,3.966,23.876,23.876,0,0,0,6.635,2.38,36.777,36.777,0,0,0,7.643.793,32.908,32.908,0,0,0,7.569-.867,27.011,27.011,0,0,0,6.635-2.454,13.647,13.647,0,0,0,4.685-4.018,9.177,9.177,0,0,0,1.735-5.552V93.669a9.481,9.481,0,0,0-1.8-5.767,14.255,14.255,0,0,0-4.685-4.04,24.056,24.056,0,0,0-6.635-2.38,36.946,36.946,0,0,0-7.643-.749A32.942,32.942,0,0,0,46.9,81.6a25.847,25.847,0,0,0-6.56,2.454A14.24,14.24,0,0,0,35.65,88.1a9.244,9.244,0,0,0-1.8,5.626Z" transform="translate(-5.828 -17.894)" fill="#ff0" stroke="#000" stroke-miterlimit="10" stroke-width="4"/>
          <path id="Path_43" data-name="Path 43" d="M203.743,93.27V41.15h21.446V143.078H202.735L171.816,89.527l-6.153-13.818L164.232,76l2.721,17.42v49.667H145.5V41.15h20.7l31.979,55.6,7.139,18.421,1.431-.289q-.43-2.446-.927-5.834t-.927-6.62q-.43-3.239-.786-5.76A29.86,29.86,0,0,1,203.743,93.27Z" transform="translate(-40.074 -13.085)" fill="#ff0" stroke="#000" stroke-miterlimit="10" stroke-width="4"/>
          <path id="Path_44" data-name="Path 44" d="M270.587,121.641a29.918,29.918,0,0,1,3.6-14.907,33.031,33.031,0,0,1,9.437-10.675,41.178,41.178,0,0,1,13.4-6.338,57.42,57.42,0,0,1,15.337-2.09A55.6,55.6,0,0,1,327.7,89.787,42.252,42.252,0,0,1,341.092,96.2a33.3,33.3,0,0,1,9.437,10.586,29.539,29.539,0,0,1,3.6,14.826v37.013a29.531,29.531,0,0,1-3.6,14.826,33.245,33.245,0,0,1-9.437,10.586,42.2,42.2,0,0,1-13.4,6.412,55.6,55.6,0,0,1-15.337,2.157,57.417,57.417,0,0,1-15.337-2.091,41.052,41.052,0,0,1-13.4-6.338,32.98,32.98,0,0,1-9.437-10.66,29.91,29.91,0,0,1-3.6-14.907Zm21.46,37.065a9.148,9.148,0,0,0,1.8,5.693,14.567,14.567,0,0,0,4.685,3.966,23.88,23.88,0,0,0,6.635,2.38,36.779,36.779,0,0,0,7.643.793,32.9,32.9,0,0,0,7.569-.867,27.024,27.024,0,0,0,6.635-2.454,13.646,13.646,0,0,0,4.663-3.959,9.184,9.184,0,0,0,1.727-5.552V121.641a9.481,9.481,0,0,0-1.8-5.767,14.256,14.256,0,0,0-4.685-4.04,24.057,24.057,0,0,0-6.635-2.38,36.944,36.944,0,0,0-7.613-.793,32.941,32.941,0,0,0-7.569.867,25.848,25.848,0,0,0-6.56,2.454,14.232,14.232,0,0,0-4.685,4.04,9.243,9.243,0,0,0-1.8,5.626Z" transform="translate(-72.433 -25.109)" fill="#ff0" stroke="#000" stroke-miterlimit="10" stroke-width="4"/>
          <path id="Path_45" data-name="Path 45" d="M427.5,149.288H406V47.36h21.275l25.108,58.562,25.4-58.562h22.483V149.288H478.825v-40.9l2.58-19.644h-1.572l-4.893,14.2-13.907,32.55H445.6L431.515,102.7l-4.893-13.951h-1.438l2.3,19.7Z" transform="translate(-107.467 -14.691)" fill="#ff0" stroke="#000" stroke-miterlimit="10" stroke-width="4"/>
          <path id="Path_46" data-name="Path 46" d="M636.322,174.1H613.81l-8.8-22.98H575.07l-8.377,22.98H543.75l35.7-101.928h20.3Zm-56.167-42.913h19.622l-6.494-22.239L590.11,94.379H589.1l-3.18,14.729Z" transform="translate(-143.104 -21.11)" fill="#ff0" stroke="#000" stroke-miterlimit="10" stroke-width="4"/>
          <path id="Path_47" data-name="Path 47" d="M705.758,72.95v80.475H684.305V72.95H655.18V51.49h79.7V72.95Z" transform="translate(-171.932 -15.76)" fill="#ff0" stroke="#000" stroke-miterlimit="10" stroke-width="4"/>
          <path id="Path_48" data-name="Path 48" d="M773,93.726a29.923,29.923,0,0,1,3.6-14.907,33.037,33.037,0,0,1,9.437-10.66,41.179,41.179,0,0,1,13.4-6.338,57.418,57.418,0,0,1,15.337-2.09,55.6,55.6,0,0,1,15.338,2.157A42.253,42.253,0,0,1,843.5,68.3a33.3,33.3,0,0,1,9.437,10.586,29.541,29.541,0,0,1,3.6,14.826v37.013a29.531,29.531,0,0,1-3.6,14.826,33.242,33.242,0,0,1-9.437,10.586,42.2,42.2,0,0,1-13.4,6.412,55.6,55.6,0,0,1-15.337,2.157,57.418,57.418,0,0,1-15.337-2.09,41.051,41.051,0,0,1-13.373-6.316,32.982,32.982,0,0,1-9.437-10.66A29.912,29.912,0,0,1,773,130.746Zm20.689,37.065a9.147,9.147,0,0,0,1.8,5.693,14.568,14.568,0,0,0,4.685,3.966,23.877,23.877,0,0,0,6.635,2.38,36.772,36.772,0,0,0,7.7.771,32.9,32.9,0,0,0,7.569-.867,27.022,27.022,0,0,0,6.635-2.454,13.649,13.649,0,0,0,4.685-3.966,9.186,9.186,0,0,0,1.727-5.552V93.7a9.483,9.483,0,0,0-1.8-5.767,14.254,14.254,0,0,0-4.729-4.025,24.056,24.056,0,0,0-6.635-2.38,36.946,36.946,0,0,0-7.643-.793,32.942,32.942,0,0,0-7.569.867,25.851,25.851,0,0,0-6.56,2.454,14.231,14.231,0,0,0-4.67,4.047,9.243,9.243,0,0,0-1.8,5.626Z" transform="translate(-202.41 -17.891)" fill="#ff0" stroke="#000" stroke-miterlimit="10" stroke-width="4"/>
          <path id="Path_49" data-name="Path 49" d="M905.37,51.49h39.867q12.254,0,20.334,5.263a34.331,34.331,0,0,1,12.112,13.121,36.567,36.567,0,0,1,4.04,16.939,36.017,36.017,0,0,1-4.106,16.939A34.34,34.34,0,0,1,965.43,116.8q-8.072,5.189-20.015,5.189H926.06v31.438H905.37Zm39.755,50.586a15.962,15.962,0,0,0,8.607-2.15,14.231,14.231,0,0,0,5.189-5.382,15.2,15.2,0,0,0,0-14.085,14.231,14.231,0,0,0-5.189-5.382,15.962,15.962,0,0,0-8.607-2.128H926.06v29.125Z" transform="translate(-236.658 -15.76)" fill="#ff0" stroke="#000" stroke-miterlimit="10" stroke-width="4"/>
          <path id="Path_50" data-name="Path 50" d="M1046,92.113h43.685V112.8H1046v19.926h48.28v20.7h-68.94V51.49h68.94v20.7H1046Z" transform="translate(-267.695 -15.76)" fill="#ff0" stroke="#000" stroke-miterlimit="10" stroke-width="4"/>
          <path id="Path_51" data-name="Path 51" d="M1159.446,104.515h43.684V125.2h-43.684v19.926h47.495v20.7H1138V63.9h68.94V84.589h-47.517Z" transform="translate(-296.841 -18.97)" fill="#ff0" stroke="#000" stroke-miterlimit="10" stroke-width="4"/>
        </g>
      </g>
    </g>
  </g>
</svg>
