<svg xmlns="http://www.w3.org/2000/svg" viewBox="0 0 21.519 16.441"><g transform="translate(0 -35.048)"><g transform="translate(0 35.048)"><g transform="translate(0 0)"><path d="M35.6,35.049h0a.759.759,0,0,0-.54.224.767.767,0,0,0-.227.547V47.366a.773.773,0,0,0,.771.77,9.526,9.526,0,0,1,6.867,2.546V38.6a.738.738,0,0,0-.106-.39C40.665,35.469,37.4,35.053,35.6,35.049Z" transform="translate(-32.309 -35.049)"/><path d="M164.389,47.365V35.818a.768.768,0,0,0-.766-.77h0c-1.8,0-5.064.42-6.764,3.159a.738.738,0,0,0-.106.39V50.681a9.526,9.526,0,0,1,6.867-2.546A.773.773,0,0,0,164.389,47.365Z" transform="translate(-145.393 -35.048)"/><path d="M179.807,71.8h-.558v9.654a1.97,1.97,0,0,1-1.964,1.965,8.541,8.541,0,0,0-5.8,1.981,18.538,18.538,0,0,1,8.152.157.77.77,0,0,0,.942-.75V72.571A.771.771,0,0,0,179.807,71.8Z" transform="translate(-159.057 -69.138)"/><path d="M1.328,81.455V71.8H.77a.771.771,0,0,0-.77.77V84.809a.77.77,0,0,0,.942.75A18.536,18.536,0,0,1,9.094,85.4a8.541,8.541,0,0,0-5.8-1.981A1.97,1.97,0,0,1,1.328,81.455Z" transform="translate(0 -69.138)"/></g></g></g></svg>