<svg xmlns="http://www.w3.org/2000/svg" width="126.1" height="94.699" viewBox="0 0 126.1 94.699">
  <g id="tjiftjaf" transform="translate(-897 -10615.4)">
    <g id="tjiftjaf-2" data-name="tjiftjaf" transform="translate(911 10494)">
      <g id="Group_123" data-name="Group 123">
        <circle id="Ellipse_2456" data-name="Ellipse 2456" transform="translate(35 128.6)"/>
        <circle id="Ellipse_2457" data-name="Ellipse 2457" transform="translate(40.1 128.6)"/>
        <circle id="Ellipse_2458" data-name="Ellipse 2458" cx="0.1" cy="0.1" r="0.1" transform="translate(45.2 128.5)"/>
        <circle id="Ellipse_2459" data-name="Ellipse 2459" cx="0.1" cy="0.1" r="0.1" transform="translate(50.3 128.5)"/>
        <circle id="Ellipse_2460" data-name="Ellipse 2460" cx="0.1" cy="0.1" r="0.1" transform="translate(55.4 128.5)"/>
        <circle id="Ellipse_2461" data-name="Ellipse 2461" cx="0.1" cy="0.1" r="0.1" transform="translate(60.6 128.5)"/>
        <circle id="Ellipse_2462" data-name="Ellipse 2462" cx="0.1" cy="0.1" r="0.1" transform="translate(65.7 128.5)"/>
        <circle id="Ellipse_2463" data-name="Ellipse 2463" cx="0.1" cy="0.1" r="0.1" transform="translate(70.9 128.5)"/>
        <circle id="Ellipse_2464" data-name="Ellipse 2464" cx="0.1" cy="0.1" r="0.1" transform="translate(76 128.5)"/>
        <circle id="Ellipse_2465" data-name="Ellipse 2465" transform="translate(81.3 128.6)"/>
        <circle id="Ellipse_2466" data-name="Ellipse 2466" transform="translate(22.1 133.8)"/>
        <circle id="Ellipse_2467" data-name="Ellipse 2467" cx="0.1" cy="0.1" r="0.1" transform="translate(27.2 133.7)"/>
        <circle id="Ellipse_2468" data-name="Ellipse 2468" cx="0.2" cy="0.2" r="0.2" transform="translate(32.2 133.6)"/>
        <circle id="Ellipse_2469" data-name="Ellipse 2469" cx="0.2" cy="0.2" r="0.2" transform="translate(37.3 133.6)"/>
        <circle id="Ellipse_2470" data-name="Ellipse 2470" cx="0.3" cy="0.3" r="0.3" transform="translate(42.4 133.5)"/>
        <circle id="Ellipse_2471" data-name="Ellipse 2471" cx="0.3" cy="0.3" r="0.3" transform="translate(47.5 133.5)"/>
        <circle id="Ellipse_2472" data-name="Ellipse 2472" cx="0.3" cy="0.3" r="0.3" transform="translate(52.7 133.5)"/>
        <circle id="Ellipse_2473" data-name="Ellipse 2473" cx="0.3" cy="0.3" r="0.3" transform="translate(57.8 133.5)"/>
        <circle id="Ellipse_2474" data-name="Ellipse 2474" cx="0.3" cy="0.3" r="0.3" transform="translate(63 133.5)"/>
        <circle id="Ellipse_2475" data-name="Ellipse 2475" cx="0.3" cy="0.3" r="0.3" transform="translate(68.1 133.5)"/>
        <circle id="Ellipse_2476" data-name="Ellipse 2476" cx="0.2" cy="0.2" r="0.2" transform="translate(73.3 133.6)"/>
        <circle id="Ellipse_2477" data-name="Ellipse 2477" cx="0.2" cy="0.2" r="0.2" transform="translate(78.5 133.6)"/>
        <circle id="Ellipse_2478" data-name="Ellipse 2478" cx="0.1" cy="0.1" r="0.1" transform="translate(83.7 133.7)"/>
        <circle id="Ellipse_2479" data-name="Ellipse 2479" transform="translate(89 133.8)"/>
        <circle id="Ellipse_2480" data-name="Ellipse 2480" transform="translate(14.4 138.9)"/>
        <circle id="Ellipse_2481" data-name="Ellipse 2481" cx="0.1" cy="0.1" r="0.1" transform="translate(19.4 138.8)"/>
        <circle id="Ellipse_2482" data-name="Ellipse 2482" cx="0.2" cy="0.2" r="0.2" transform="translate(24.5 138.7)"/>
        <circle id="Ellipse_2483" data-name="Ellipse 2483" cx="0.3" cy="0.3" r="0.3" transform="translate(29.5 138.6)"/>
        <circle id="Ellipse_2484" data-name="Ellipse 2484" cx="0.4" cy="0.4" r="0.4" transform="translate(34.6 138.5)"/>
        <circle id="Ellipse_2485" data-name="Ellipse 2485" cx="0.5" cy="0.5" r="0.5" transform="translate(39.6 138.4)"/>
        <circle id="Ellipse_2486" data-name="Ellipse 2486" cx="0.6" cy="0.6" r="0.6" transform="translate(44.7 138.3)"/>
        <circle id="Ellipse_2487" data-name="Ellipse 2487" cx="0.7" cy="0.7" r="0.7" transform="translate(49.7 138.2)"/>
        <circle id="Ellipse_2488" data-name="Ellipse 2488" cx="0.7" cy="0.7" r="0.7" transform="translate(54.8 138.2)"/>
        <circle id="Ellipse_2489" data-name="Ellipse 2489" cx="0.7" cy="0.7" r="0.7" transform="translate(60 138.2)"/>
        <circle id="Ellipse_2490" data-name="Ellipse 2490" cx="0.6" cy="0.6" r="0.6" transform="translate(65.2 138.3)"/>
        <circle id="Ellipse_2491" data-name="Ellipse 2491" cx="0.6" cy="0.6" r="0.6" transform="translate(70.4 138.3)"/>
        <circle id="Ellipse_2492" data-name="Ellipse 2492" cx="0.5" cy="0.5" r="0.5" transform="translate(75.6 138.4)"/>
        <circle id="Ellipse_2493" data-name="Ellipse 2493" cx="0.4" cy="0.4" r="0.4" transform="translate(80.9 138.5)"/>
        <circle id="Ellipse_2494" data-name="Ellipse 2494" cx="0.3" cy="0.3" r="0.3" transform="translate(86.1 138.6)"/>
        <circle id="Ellipse_2495" data-name="Ellipse 2495" cx="0.2" cy="0.2" r="0.2" transform="translate(91.3 138.7)"/>
        <circle id="Ellipse_2496" data-name="Ellipse 2496" cx="0.1" cy="0.1" r="0.1" transform="translate(96.6 138.8)"/>
        <circle id="Ellipse_2497" data-name="Ellipse 2497" transform="translate(101.8 138.9)"/>
        <circle id="Ellipse_2498" data-name="Ellipse 2498" cx="0.1" cy="0.1" r="0.1" transform="translate(6.6 144)"/>
        <circle id="Ellipse_2499" data-name="Ellipse 2499" cx="0.2" cy="0.2" r="0.2" transform="translate(11.6 143.9)"/>
        <circle id="Ellipse_2500" data-name="Ellipse 2500" cx="0.3" cy="0.3" r="0.3" transform="translate(16.7 143.8)"/>
        <circle id="Ellipse_2501" data-name="Ellipse 2501" cx="0.5" cy="0.5" r="0.5" transform="translate(21.6 143.6)"/>
        <circle id="Ellipse_2502" data-name="Ellipse 2502" cx="0.6" cy="0.6" r="0.6" transform="translate(26.7 143.5)"/>
        <circle id="Ellipse_2503" data-name="Ellipse 2503" cx="0.8" cy="0.8" r="0.8" transform="translate(31.6 143.3)"/>
        <circle id="Ellipse_2504" data-name="Ellipse 2504" cx="0.9" cy="0.9" r="0.9" transform="translate(36.6 143.2)"/>
        <circle id="Ellipse_2505" data-name="Ellipse 2505" cx="1" cy="1" r="1" transform="translate(41.7 143.1)"/>
        <circle id="Ellipse_2506" data-name="Ellipse 2506" cx="1.1" cy="1.1" r="1.1" transform="translate(46.7 143)"/>
        <circle id="Ellipse_2507" data-name="Ellipse 2507" cx="1.1" cy="1.1" r="1.1" transform="translate(51.9 143)"/>
        <circle id="Ellipse_2508" data-name="Ellipse 2508" cx="1.1" cy="1.1" r="1.1" transform="translate(57 143)"/>
        <circle id="Ellipse_2509" data-name="Ellipse 2509" cx="1" cy="1" r="1" transform="translate(62.3 143.1)"/>
        <circle id="Ellipse_2510" data-name="Ellipse 2510" cx="0.9" cy="0.9" r="0.9" transform="translate(67.5 143.2)"/>
        <circle id="Ellipse_2511" data-name="Ellipse 2511" cx="0.8" cy="0.8" r="0.8" transform="translate(72.7 143.3)"/>
        <circle id="Ellipse_2512" data-name="Ellipse 2512" cx="0.6" cy="0.6" r="0.6" transform="translate(78.1 143.5)"/>
        <circle id="Ellipse_2513" data-name="Ellipse 2513" cx="0.5" cy="0.5" r="0.5" transform="translate(83.3 143.6)"/>
        <circle id="Ellipse_2514" data-name="Ellipse 2514" cx="0.3" cy="0.3" r="0.3" transform="translate(88.7 143.8)"/>
        <circle id="Ellipse_2515" data-name="Ellipse 2515" cx="0.2" cy="0.2" r="0.2" transform="translate(93.9 143.9)"/>
        <circle id="Ellipse_2516" data-name="Ellipse 2516" cx="0.1" cy="0.1" r="0.1" transform="translate(99.2 144)"/>
        <circle id="Ellipse_2517" data-name="Ellipse 2517" transform="translate(104.4 144.1)"/>
        <circle id="Ellipse_2518" data-name="Ellipse 2518" transform="translate(-1 149.2)"/>
        <circle id="Ellipse_2519" data-name="Ellipse 2519" cx="0.1" cy="0.1" r="0.1" transform="translate(4 149.1)"/>
        <circle id="Ellipse_2520" data-name="Ellipse 2520" cx="0.2" cy="0.2" r="0.2" transform="translate(9.1 149)"/>
        <circle id="Ellipse_2521" data-name="Ellipse 2521" cx="0.4" cy="0.4" r="0.4" transform="translate(14 148.8)"/>
        <circle id="Ellipse_2522" data-name="Ellipse 2522" cx="0.6" cy="0.6" r="0.6" transform="translate(18.9 148.6)"/>
        <circle id="Ellipse_2523" data-name="Ellipse 2523" cx="0.8" cy="0.8" r="0.8" transform="translate(23.9 148.4)"/>
        <circle id="Ellipse_2524" data-name="Ellipse 2524" cx="1" cy="1" r="1" transform="translate(28.8 148.2)"/>
        <circle id="Ellipse_2525" data-name="Ellipse 2525" cx="1.2" cy="1.2" r="1.2" transform="translate(33.8 148)"/>
        <circle id="Ellipse_2526" data-name="Ellipse 2526" cx="1.4" cy="1.4" r="1.4" transform="translate(38.7 147.8)"/>
        <circle id="Ellipse_2527" data-name="Ellipse 2527" cx="1.5" cy="1.5" r="1.5" transform="translate(43.8 147.7)"/>
        <circle id="Ellipse_2528" data-name="Ellipse 2528" cx="1.6" cy="1.6" r="1.6" transform="translate(48.8 147.6)"/>
        <circle id="Ellipse_2529" data-name="Ellipse 2529" cx="1.6" cy="1.6" r="1.6" transform="translate(53.9 147.6)"/>
        <circle id="Ellipse_2530" data-name="Ellipse 2530" cx="1.6" cy="1.6" r="1.6" transform="translate(59.1 147.6)"/>
        <circle id="Ellipse_2531" data-name="Ellipse 2531" cx="1.5" cy="1.5" r="1.5" transform="translate(64.3 147.7)"/>
        <circle id="Ellipse_2532" data-name="Ellipse 2532" cx="1.3" cy="1.3" r="1.3" transform="translate(69.7 147.9)"/>
        <circle id="Ellipse_2533" data-name="Ellipse 2533" cx="1.1" cy="1.1" r="1.1" transform="translate(75 148.1)"/>
        <circle id="Ellipse_2534" data-name="Ellipse 2534" cx="0.9" cy="0.9" r="0.9" transform="translate(80.4 148.3)"/>
        <circle id="Ellipse_2535" data-name="Ellipse 2535" cx="0.7" cy="0.7" r="0.7" transform="translate(85.7 148.5)"/>
        <circle id="Ellipse_2536" data-name="Ellipse 2536" cx="0.5" cy="0.5" r="0.5" transform="translate(91 148.7)"/>
        <circle id="Ellipse_2537" data-name="Ellipse 2537" cx="0.3" cy="0.3" r="0.3" transform="translate(96.4 148.9)"/>
        <circle id="Ellipse_2538" data-name="Ellipse 2538" cx="0.2" cy="0.2" r="0.2" transform="translate(101.6 149)"/>
        <circle id="Ellipse_2539" data-name="Ellipse 2539" cx="0.1" cy="0.1" r="0.1" transform="translate(106.9 149.1)"/>
        <circle id="Ellipse_2540" data-name="Ellipse 2540" cx="0.1" cy="0.1" r="0.1" transform="translate(-3.7 154.3)"/>
        <circle id="Ellipse_2541" data-name="Ellipse 2541" cx="0.2" cy="0.2" r="0.2" transform="translate(1.3 154.2)"/>
        <circle id="Ellipse_2542" data-name="Ellipse 2542" cx="0.4" cy="0.4" r="0.4" transform="translate(6.3 154)"/>
        <circle id="Ellipse_2543" data-name="Ellipse 2543" cx="0.6" cy="0.6" r="0.6" transform="translate(11.2 153.8)"/>
        <circle id="Ellipse_2544" data-name="Ellipse 2544" cx="0.9" cy="0.9" r="0.9" transform="translate(16.1 153.5)"/>
        <circle id="Ellipse_2545" data-name="Ellipse 2545" cx="1.1" cy="1.1" r="1.1" transform="translate(21 153.3)"/>
        <circle id="Ellipse_2546" data-name="Ellipse 2546" cx="1.4" cy="1.4" r="1.4" transform="translate(25.9 153)"/>
        <circle id="Ellipse_2547" data-name="Ellipse 2547" cx="1.7" cy="1.7" r="1.7" transform="translate(30.7 152.7)"/>
        <circle id="Ellipse_2548" data-name="Ellipse 2548" cx="1.9" cy="1.9" r="1.9" transform="translate(35.6 152.5)"/>
        <circle id="Ellipse_2549" data-name="Ellipse 2549" cx="2.1" cy="2.1" r="2.1" transform="translate(40.6 152.3)"/>
        <circle id="Ellipse_2550" data-name="Ellipse 2550" cx="2.2" cy="2.2" r="2.2" transform="translate(45.6 152.2)"/>
        <circle id="Ellipse_2551" data-name="Ellipse 2551" cx="2.2" cy="2.2" r="2.2" transform="translate(50.8 152.2)"/>
        <circle id="Ellipse_2552" data-name="Ellipse 2552" cx="2.1" cy="2.1" r="2.1" transform="translate(56 152.3)"/>
        <circle id="Ellipse_2553" data-name="Ellipse 2553" cx="2" cy="2" r="2" transform="translate(61.3 152.4)"/>
        <circle id="Ellipse_2554" data-name="Ellipse 2554" cx="1.7" cy="1.7" r="1.7" transform="translate(66.7 152.7)"/>
        <circle id="Ellipse_2555" data-name="Ellipse 2555" cx="1.5" cy="1.5" r="1.5" transform="translate(72 152.9)"/>
        <circle id="Ellipse_2556" data-name="Ellipse 2556" cx="1.2" cy="1.2" r="1.2" transform="translate(77.5 153.2)"/>
        <circle id="Ellipse_2557" data-name="Ellipse 2557" cx="0.9" cy="0.9" r="0.9" transform="translate(82.9 153.5)"/>
        <circle id="Ellipse_2558" data-name="Ellipse 2558" cx="0.7" cy="0.7" r="0.7" transform="translate(88.3 153.7)"/>
        <circle id="Ellipse_2559" data-name="Ellipse 2559" cx="0.4" cy="0.4" r="0.4" transform="translate(93.7 154)"/>
        <circle id="Ellipse_2560" data-name="Ellipse 2560" cx="0.2" cy="0.2" r="0.2" transform="translate(99.1 154.2)"/>
        <circle id="Ellipse_2561" data-name="Ellipse 2561" cx="0.1" cy="0.1" r="0.1" transform="translate(104.3 154.3)"/>
        <circle id="Ellipse_2562" data-name="Ellipse 2562" transform="translate(109.5 154.4)"/>
        <circle id="Ellipse_2563" data-name="Ellipse 2563" transform="translate(-6.2 159.5)"/>
        <circle id="Ellipse_2564" data-name="Ellipse 2564" cx="0.2" cy="0.2" r="0.2" transform="translate(-1.2 159.3)"/>
        <circle id="Ellipse_2565" data-name="Ellipse 2565" cx="0.3" cy="0.3" r="0.3" transform="translate(3.8 159.2)"/>
        <circle id="Ellipse_2566" data-name="Ellipse 2566" cx="0.6" cy="0.6" r="0.6" transform="translate(8.7 158.9)"/>
        <circle id="Ellipse_2567" data-name="Ellipse 2567" cx="0.8" cy="0.8" r="0.8" transform="translate(13.6 158.7)"/>
        <circle id="Ellipse_2568" data-name="Ellipse 2568" cx="1.2" cy="1.2" r="1.2" transform="translate(18.3 158.3)"/>
        <circle id="Ellipse_2569" data-name="Ellipse 2569" cx="1.5" cy="1.5" r="1.5" transform="translate(23.2 158)"/>
        <circle id="Ellipse_2570" data-name="Ellipse 2570" cx="1.8" cy="1.8" r="1.8" transform="translate(28 157.7)"/>
        <circle id="Ellipse_2571" data-name="Ellipse 2571" cx="2.2" cy="2.2" r="2.2" transform="translate(32.8 157.3)"/>
        <circle id="Ellipse_2572" data-name="Ellipse 2572" cx="2.5" cy="2.5" r="2.5" transform="translate(37.6 157)"/>
        <circle id="Ellipse_2573" data-name="Ellipse 2573" cx="2.7" cy="2.7" r="2.7" transform="translate(42.6 156.8)"/>
        <circle id="Ellipse_2574" data-name="Ellipse 2574" cx="2.7" cy="2.7" r="2.7" transform="translate(47.7 156.8)"/>
        <circle id="Ellipse_2575" data-name="Ellipse 2575" cx="2.7" cy="2.7" r="2.7" transform="translate(52.8 156.8)"/>
        <circle id="Ellipse_2576" data-name="Ellipse 2576" cx="2.7" cy="2.7" r="2.7" transform="translate(58 156.8)"/>
        <circle id="Ellipse_2577" data-name="Ellipse 2577" cx="2.4" cy="2.4" r="2.4" transform="translate(63.4 157.1)"/>
        <circle id="Ellipse_2578" data-name="Ellipse 2578" cx="2.1" cy="2.1" r="2.1" transform="translate(68.9 157.4)"/>
        <circle id="Ellipse_2579" data-name="Ellipse 2579" cx="1.7" cy="1.7" r="1.7" transform="translate(74.4 157.8)"/>
        <circle id="Ellipse_2580" data-name="Ellipse 2580" cx="1.4" cy="1.4" r="1.4" transform="translate(79.9 158.1)"/>
        <circle id="Ellipse_2581" data-name="Ellipse 2581" cx="1.1" cy="1.1" r="1.1" transform="translate(85.3 158.4)"/>
        <circle id="Ellipse_2582" data-name="Ellipse 2582" cx="0.8" cy="0.8" r="0.8" transform="translate(90.7 158.7)"/>
        <circle id="Ellipse_2583" data-name="Ellipse 2583" cx="0.5" cy="0.5" r="0.5" transform="translate(96.2 159)"/>
        <circle id="Ellipse_2584" data-name="Ellipse 2584" cx="0.3" cy="0.3" r="0.3" transform="translate(101.5 159.2)"/>
        <circle id="Ellipse_2585" data-name="Ellipse 2585" cx="0.1" cy="0.1" r="0.1" transform="translate(106.9 159.4)"/>
        <circle id="Ellipse_2586" data-name="Ellipse 2586" transform="translate(112.1 159.5)"/>
        <circle id="Ellipse_2587" data-name="Ellipse 2587" transform="translate(-13.9 164.6)"/>
        <circle id="Ellipse_2588" data-name="Ellipse 2588" cx="0.1" cy="0.1" r="0.1" transform="translate(-8.8 164.5)"/>
        <circle id="Ellipse_2589" data-name="Ellipse 2589" cx="0.3" cy="0.3" r="0.3" transform="translate(-3.9 164.3)"/>
        <circle id="Ellipse_2590" data-name="Ellipse 2590" cx="0.5" cy="0.5" r="0.5" transform="translate(1 164.1)"/>
        <circle id="Ellipse_2591" data-name="Ellipse 2591" cx="0.8" cy="0.8" r="0.8" transform="translate(5.9 163.8)"/>
        <circle id="Ellipse_2592" data-name="Ellipse 2592" cx="1.1" cy="1.1" r="1.1" transform="translate(10.7 163.5)"/>
        <circle id="Ellipse_2593" data-name="Ellipse 2593" cx="1.4" cy="1.4" r="1.4" transform="translate(15.6 163.2)"/>
        <circle id="Ellipse_2594" data-name="Ellipse 2594" cx="1.8" cy="1.8" r="1.8" transform="translate(20.3 162.8)"/>
        <circle id="Ellipse_2595" data-name="Ellipse 2595" cx="2.2" cy="2.2" r="2.2" transform="translate(25.1 162.4)"/>
        <circle id="Ellipse_2596" data-name="Ellipse 2596" cx="2.7" cy="2.7" r="2.7" transform="translate(29.7 161.9)"/>
        <circle id="Ellipse_2597" data-name="Ellipse 2597" cx="2.7" cy="2.7" r="2.7" transform="translate(34.8 161.9)"/>
        <circle id="Ellipse_2598" data-name="Ellipse 2598" cx="2.7" cy="2.7" r="2.7" transform="translate(40 161.9)"/>
        <circle id="Ellipse_2599" data-name="Ellipse 2599" cx="2.7" cy="2.7" r="2.7" transform="translate(45.1 161.9)"/>
        <circle id="Ellipse_2600" data-name="Ellipse 2600" cx="2.7" cy="2.7" r="2.7" transform="translate(50.3 161.9)"/>
        <circle id="Ellipse_2601" data-name="Ellipse 2601" cx="2.7" cy="2.7" r="2.7" transform="translate(55.4 161.9)"/>
        <circle id="Ellipse_2602" data-name="Ellipse 2602" cx="2.7" cy="2.7" r="2.7" transform="translate(60.6 161.9)"/>
        <circle id="Ellipse_2603" data-name="Ellipse 2603" cx="2.3" cy="2.3" r="2.3" transform="translate(66.1 162.3)"/>
        <circle id="Ellipse_2604" data-name="Ellipse 2604" cx="1.9" cy="1.9" r="1.9" transform="translate(71.6 162.7)"/>
        <circle id="Ellipse_2605" data-name="Ellipse 2605" cx="1.5" cy="1.5" r="1.5" transform="translate(77.2 163.1)"/>
        <circle id="Ellipse_2606" data-name="Ellipse 2606" cx="1.1" cy="1.1" r="1.1" transform="translate(82.7 163.5)"/>
        <circle id="Ellipse_2607" data-name="Ellipse 2607" cx="0.8" cy="0.8" r="0.8" transform="translate(88.2 163.8)"/>
        <circle id="Ellipse_2608" data-name="Ellipse 2608" cx="0.5" cy="0.5" r="0.5" transform="translate(93.6 164.1)"/>
        <circle id="Ellipse_2609" data-name="Ellipse 2609" cx="0.3" cy="0.3" r="0.3" transform="translate(99 164.3)"/>
        <circle id="Ellipse_2610" data-name="Ellipse 2610" cx="0.1" cy="0.1" r="0.1" transform="translate(104.3 164.5)"/>
        <circle id="Ellipse_2611" data-name="Ellipse 2611" transform="translate(109.5 164.6)"/>
        <circle id="Ellipse_2612" data-name="Ellipse 2612" transform="translate(-11.3 169.8)"/>
        <circle id="Ellipse_2613" data-name="Ellipse 2613" cx="0.2" cy="0.2" r="0.2" transform="translate(-6.4 169.6)"/>
        <circle id="Ellipse_2614" data-name="Ellipse 2614" cx="0.3" cy="0.3" r="0.3" transform="translate(-1.3 169.5)"/>
        <circle id="Ellipse_2615" data-name="Ellipse 2615" cx="0.6" cy="0.6" r="0.6" transform="translate(3.5 169.2)"/>
        <circle id="Ellipse_2616" data-name="Ellipse 2616" cx="0.9" cy="0.9" r="0.9" transform="translate(8.4 168.9)"/>
        <circle id="Ellipse_2617" data-name="Ellipse 2617" cx="1.2" cy="1.2" r="1.2" transform="translate(13.2 168.6)"/>
        <circle id="Ellipse_2618" data-name="Ellipse 2618" cx="1.6" cy="1.6" r="1.6" transform="translate(17.9 168.2)"/>
        <circle id="Ellipse_2619" data-name="Ellipse 2619" cx="2" cy="2" r="2" transform="translate(22.7 167.8)"/>
        <circle id="Ellipse_2620" data-name="Ellipse 2620" cx="2.5" cy="2.5" r="2.5" transform="translate(27.3 167.3)"/>
        <circle id="Ellipse_2621" data-name="Ellipse 2621" cx="2.7" cy="2.7" r="2.7" transform="translate(32.3 167.1)"/>
        <circle id="Ellipse_2622" data-name="Ellipse 2622" cx="2.7" cy="2.7" r="2.7" transform="translate(37.4 167.1)"/>
        <circle id="Ellipse_2623" data-name="Ellipse 2623" cx="2.7" cy="2.7" r="2.7" transform="translate(42.6 167.1)"/>
        <circle id="Ellipse_2624" data-name="Ellipse 2624" cx="2.7" cy="2.7" r="2.7" transform="translate(47.7 167.1)"/>
        <circle id="Ellipse_2625" data-name="Ellipse 2625" cx="2.7" cy="2.7" r="2.7" transform="translate(52.8 167.1)"/>
        <circle id="Ellipse_2626" data-name="Ellipse 2626" cx="2.7" cy="2.7" r="2.7" transform="translate(58 167.1)"/>
        <circle id="Ellipse_2627" data-name="Ellipse 2627" cx="2.7" cy="2.7" r="2.7" transform="translate(63.1 167.1)"/>
        <circle id="Ellipse_2628" data-name="Ellipse 2628" cx="2.4" cy="2.4" r="2.4" transform="translate(68.6 167.4)"/>
        <circle id="Ellipse_2629" data-name="Ellipse 2629" cx="1.9" cy="1.9" r="1.9" transform="translate(74.2 167.9)"/>
        <circle id="Ellipse_2630" data-name="Ellipse 2630" cx="1.5" cy="1.5" r="1.5" transform="translate(79.8 168.3)"/>
        <circle id="Ellipse_2631" data-name="Ellipse 2631" cx="1.1" cy="1.1" r="1.1" transform="translate(85.3 168.7)"/>
        <circle id="Ellipse_2632" data-name="Ellipse 2632" cx="0.8" cy="0.8" r="0.8" transform="translate(90.7 169)"/>
        <circle id="Ellipse_2633" data-name="Ellipse 2633" cx="0.5" cy="0.5" r="0.5" transform="translate(96.2 169.3)"/>
        <circle id="Ellipse_2634" data-name="Ellipse 2634" cx="0.3" cy="0.3" r="0.3" transform="translate(101.5 169.5)"/>
        <circle id="Ellipse_2635" data-name="Ellipse 2635" cx="0.1" cy="0.1" r="0.1" transform="translate(106.9 169.7)"/>
        <circle id="Ellipse_2636" data-name="Ellipse 2636" transform="translate(112.1 169.8)"/>
        <circle id="Ellipse_2637" data-name="Ellipse 2637" cx="0.1" cy="0.1" r="0.1" transform="translate(-14 174.8)"/>
        <circle id="Ellipse_2638" data-name="Ellipse 2638" cx="0.2" cy="0.2" r="0.2" transform="translate(-8.9 174.7)"/>
        <circle id="Ellipse_2639" data-name="Ellipse 2639" cx="0.4" cy="0.4" r="0.4" transform="translate(-4 174.5)"/>
        <circle id="Ellipse_2640" data-name="Ellipse 2640" cx="0.6" cy="0.6" r="0.6" transform="translate(0.9 174.3)"/>
        <circle id="Ellipse_2641" data-name="Ellipse 2641" cx="0.9" cy="0.9" r="0.9" transform="translate(5.8 174)"/>
        <circle id="Ellipse_2642" data-name="Ellipse 2642" cx="1.3" cy="1.3" r="1.3" transform="translate(10.5 173.6)"/>
        <circle id="Ellipse_2643" data-name="Ellipse 2643" cx="1.7" cy="1.7" r="1.7" transform="translate(15.3 173.2)"/>
        <circle id="Ellipse_2644" data-name="Ellipse 2644" cx="2.1" cy="2.1" r="2.1" transform="translate(20 172.8)"/>
        <circle id="Ellipse_2645" data-name="Ellipse 2645" cx="2.6" cy="2.6" r="2.6" transform="translate(24.7 172.3)"/>
        <circle id="Ellipse_2646" data-name="Ellipse 2646" cx="2.7" cy="2.7" r="2.7" transform="translate(29.7 172.2)"/>
        <circle id="Ellipse_2647" data-name="Ellipse 2647" cx="2.7" cy="2.7" r="2.7" transform="translate(34.8 172.2)"/>
        <circle id="Ellipse_2648" data-name="Ellipse 2648" cx="2.7" cy="2.7" r="2.7" transform="translate(40 172.2)"/>
        <circle id="Ellipse_2649" data-name="Ellipse 2649" cx="2.7" cy="2.7" r="2.7" transform="translate(45.1 172.2)"/>
        <circle id="Ellipse_2650" data-name="Ellipse 2650" cx="2.7" cy="2.7" r="2.7" transform="translate(50.3 172.2)"/>
        <circle id="Ellipse_2651" data-name="Ellipse 2651" cx="2.7" cy="2.7" r="2.7" transform="translate(55.4 172.2)"/>
        <circle id="Ellipse_2652" data-name="Ellipse 2652" cx="2.7" cy="2.7" r="2.7" transform="translate(60.6 172.2)"/>
        <circle id="Ellipse_2653" data-name="Ellipse 2653" cx="2.2" cy="2.2" r="2.2" transform="translate(66.2 172.7)"/>
        <circle id="Ellipse_2654" data-name="Ellipse 2654" cx="1.8" cy="1.8" r="1.8" transform="translate(71.7 173.1)"/>
        <circle id="Ellipse_2655" data-name="Ellipse 2655" cx="1.4" cy="1.4" r="1.4" transform="translate(77.3 173.5)"/>
        <circle id="Ellipse_2656" data-name="Ellipse 2656" cx="1" cy="1" r="1" transform="translate(82.8 173.9)"/>
        <circle id="Ellipse_2657" data-name="Ellipse 2657" cx="0.7" cy="0.7" r="0.7" transform="translate(88.3 174.2)"/>
        <circle id="Ellipse_2658" data-name="Ellipse 2658" cx="0.4" cy="0.4" r="0.4" transform="translate(93.7 174.5)"/>
        <circle id="Ellipse_2659" data-name="Ellipse 2659" cx="0.2" cy="0.2" r="0.2" transform="translate(99.1 174.7)"/>
        <circle id="Ellipse_2660" data-name="Ellipse 2660" cx="0.1" cy="0.1" r="0.1" transform="translate(104.3 174.8)"/>
        <circle id="Ellipse_2661" data-name="Ellipse 2661" cx="0.1" cy="0.1" r="0.1" transform="translate(-11.4 180)"/>
        <circle id="Ellipse_2662" data-name="Ellipse 2662" cx="0.2" cy="0.2" r="0.2" transform="translate(-6.4 179.9)"/>
        <circle id="Ellipse_2663" data-name="Ellipse 2663" cx="0.4" cy="0.4" r="0.4" transform="translate(-1.4 179.7)"/>
        <circle id="Ellipse_2664" data-name="Ellipse 2664" cx="0.6" cy="0.6" r="0.6" transform="translate(3.5 179.5)"/>
        <circle id="Ellipse_2665" data-name="Ellipse 2665" cx="0.9" cy="0.9" r="0.9" transform="translate(8.4 179.2)"/>
        <circle id="Ellipse_2666" data-name="Ellipse 2666" cx="1.3" cy="1.3" r="1.3" transform="translate(13.1 178.8)"/>
        <circle id="Ellipse_2667" data-name="Ellipse 2667" cx="1.6" cy="1.6" r="1.6" transform="translate(17.9 178.5)"/>
        <circle id="Ellipse_2668" data-name="Ellipse 2668" cx="2" cy="2" r="2" transform="translate(22.7 178.1)"/>
        <circle id="Ellipse_2669" data-name="Ellipse 2669" cx="2.4" cy="2.4" r="2.4" transform="translate(27.4 177.7)"/>
        <circle id="Ellipse_2670" data-name="Ellipse 2670" cx="2.7" cy="2.7" r="2.7" transform="translate(32.3 177.4)"/>
        <circle id="Ellipse_2671" data-name="Ellipse 2671" cx="2.7" cy="2.7" r="2.7" transform="translate(37.4 177.4)"/>
        <circle id="Ellipse_2672" data-name="Ellipse 2672" cx="2.7" cy="2.7" r="2.7" transform="translate(42.6 177.4)"/>
        <circle id="Ellipse_2673" data-name="Ellipse 2673" cx="2.7" cy="2.7" r="2.7" transform="translate(47.7 177.4)"/>
        <circle id="Ellipse_2674" data-name="Ellipse 2674" cx="2.7" cy="2.7" r="2.7" transform="translate(52.8 177.4)"/>
        <circle id="Ellipse_2675" data-name="Ellipse 2675" cx="2.7" cy="2.7" r="2.7" transform="translate(58 177.4)"/>
        <circle id="Ellipse_2676" data-name="Ellipse 2676" cx="2.3" cy="2.3" r="2.3" transform="translate(63.5 177.8)"/>
        <circle id="Ellipse_2677" data-name="Ellipse 2677" cx="1.9" cy="1.9" r="1.9" transform="translate(69.1 178.2)"/>
        <circle id="Ellipse_2678" data-name="Ellipse 2678" cx="1.5" cy="1.5" r="1.5" transform="translate(74.6 178.6)"/>
        <circle id="Ellipse_2679" data-name="Ellipse 2679" cx="1.2" cy="1.2" r="1.2" transform="translate(80.1 178.9)"/>
        <circle id="Ellipse_2680" data-name="Ellipse 2680" cx="0.9" cy="0.9" r="0.9" transform="translate(85.5 179.2)"/>
        <circle id="Ellipse_2681" data-name="Ellipse 2681" cx="0.6" cy="0.6" r="0.6" transform="translate(90.9 179.5)"/>
        <circle id="Ellipse_2682" data-name="Ellipse 2682" cx="0.3" cy="0.3" r="0.3" transform="translate(96.4 179.8)"/>
        <circle id="Ellipse_2683" data-name="Ellipse 2683" cx="0.2" cy="0.2" r="0.2" transform="translate(101.6 179.9)"/>
        <circle id="Ellipse_2684" data-name="Ellipse 2684" transform="translate(107 180.1)"/>
        <circle id="Ellipse_2685" data-name="Ellipse 2685" transform="translate(-13.9 185.2)"/>
        <circle id="Ellipse_2686" data-name="Ellipse 2686" cx="0.2" cy="0.2" r="0.2" transform="translate(-8.9 185)"/>
        <circle id="Ellipse_2687" data-name="Ellipse 2687" cx="0.4" cy="0.4" r="0.4" transform="translate(-4 184.8)"/>
        <circle id="Ellipse_2688" data-name="Ellipse 2688" cx="0.6" cy="0.6" r="0.6" transform="translate(0.9 184.6)"/>
        <circle id="Ellipse_2689" data-name="Ellipse 2689" cx="0.8" cy="0.8" r="0.8" transform="translate(5.9 184.4)"/>
        <circle id="Ellipse_2690" data-name="Ellipse 2690" cx="1.1" cy="1.1" r="1.1" transform="translate(10.7 184.1)"/>
        <circle id="Ellipse_2691" data-name="Ellipse 2691" cx="1.5" cy="1.5" r="1.5" transform="translate(15.5 183.7)"/>
        <circle id="Ellipse_2692" data-name="Ellipse 2692" cx="1.8" cy="1.8" r="1.8" transform="translate(20.3 183.4)"/>
        <circle id="Ellipse_2693" data-name="Ellipse 2693" cx="2.1" cy="2.1" r="2.1" transform="translate(25.2 183.1)"/>
        <circle id="Ellipse_2694" data-name="Ellipse 2694" cx="2.4" cy="2.4" r="2.4" transform="translate(30 182.8)"/>
        <circle id="Ellipse_2695" data-name="Ellipse 2695" cx="2.6" cy="2.6" r="2.6" transform="translate(34.9 182.6)"/>
        <circle id="Ellipse_2696" data-name="Ellipse 2696" cx="2.6" cy="2.6" r="2.6" transform="translate(40.1 182.6)"/>
        <circle id="Ellipse_2697" data-name="Ellipse 2697" cx="2.6" cy="2.6" r="2.6" transform="translate(45.2 182.6)"/>
        <circle id="Ellipse_2698" data-name="Ellipse 2698" cx="2.4" cy="2.4" r="2.4" transform="translate(50.6 182.8)"/>
        <circle id="Ellipse_2699" data-name="Ellipse 2699" cx="2.2" cy="2.2" r="2.2" transform="translate(55.9 183)"/>
        <circle id="Ellipse_2700" data-name="Ellipse 2700" cx="1.9" cy="1.9" r="1.9" transform="translate(61.4 183.3)"/>
        <circle id="Ellipse_2701" data-name="Ellipse 2701" cx="1.5" cy="1.5" r="1.5" transform="translate(66.9 183.7)"/>
        <circle id="Ellipse_2702" data-name="Ellipse 2702" cx="1.2" cy="1.2" r="1.2" transform="translate(72.3 184)"/>
        <circle id="Ellipse_2703" data-name="Ellipse 2703" cx="0.9" cy="0.9" r="0.9" transform="translate(77.8 184.3)"/>
        <circle id="Ellipse_2704" data-name="Ellipse 2704" cx="0.6" cy="0.6" r="0.6" transform="translate(83.2 184.6)"/>
        <circle id="Ellipse_2705" data-name="Ellipse 2705" cx="0.4" cy="0.4" r="0.4" transform="translate(88.6 184.8)"/>
        <circle id="Ellipse_2706" data-name="Ellipse 2706" cx="0.2" cy="0.2" r="0.2" transform="translate(93.9 185)"/>
        <circle id="Ellipse_2707" data-name="Ellipse 2707" cx="0.1" cy="0.1" r="0.1" transform="translate(99.2 185.1)"/>
        <circle id="Ellipse_2708" data-name="Ellipse 2708" transform="translate(-11.3 190.4)"/>
        <circle id="Ellipse_2709" data-name="Ellipse 2709" cx="0.1" cy="0.1" r="0.1" transform="translate(-6.3 190.3)"/>
        <circle id="Ellipse_2710" data-name="Ellipse 2710" cx="0.3" cy="0.3" r="0.3" transform="translate(-1.3 190.1)"/>
        <circle id="Ellipse_2711" data-name="Ellipse 2711" cx="0.5" cy="0.5" r="0.5" transform="translate(3.6 189.9)"/>
        <circle id="Ellipse_2712" data-name="Ellipse 2712" cx="0.7" cy="0.7" r="0.7" transform="translate(8.6 189.7)"/>
        <circle id="Ellipse_2713" data-name="Ellipse 2713" cx="0.9" cy="0.9" r="0.9" transform="translate(13.5 189.5)"/>
        <circle id="Ellipse_2714" data-name="Ellipse 2714" cx="1.2" cy="1.2" r="1.2" transform="translate(18.3 189.2)"/>
        <circle id="Ellipse_2715" data-name="Ellipse 2715" cx="1.4" cy="1.4" r="1.4" transform="translate(23.3 189)"/>
        <circle id="Ellipse_2716" data-name="Ellipse 2716" cx="1.7" cy="1.7" r="1.7" transform="translate(28.1 188.7)"/>
        <circle id="Ellipse_2717" data-name="Ellipse 2717" cx="1.8" cy="1.8" r="1.8" transform="translate(33.2 188.6)"/>
        <circle id="Ellipse_2718" data-name="Ellipse 2718" cx="2" cy="2" r="2" transform="translate(38.1 188.4)"/>
        <circle id="Ellipse_2719" data-name="Ellipse 2719" cx="2" cy="2" r="2" transform="translate(43.3 188.4)"/>
        <circle id="Ellipse_2720" data-name="Ellipse 2720" cx="1.9" cy="1.9" r="1.9" transform="translate(48.5 188.5)"/>
        <circle id="Ellipse_2721" data-name="Ellipse 2721" cx="1.8" cy="1.8" r="1.8" transform="translate(53.7 188.6)"/>
        <circle id="Ellipse_2722" data-name="Ellipse 2722" cx="1.6" cy="1.6" r="1.6" transform="translate(59.1 188.8)"/>
        <circle id="Ellipse_2723" data-name="Ellipse 2723" cx="1.4" cy="1.4" r="1.4" transform="translate(64.4 189)"/>
        <circle id="Ellipse_2724" data-name="Ellipse 2724" cx="1.1" cy="1.1" r="1.1" transform="translate(69.9 189.3)"/>
        <circle id="Ellipse_2725" data-name="Ellipse 2725" cx="0.9" cy="0.9" r="0.9" transform="translate(75.2 189.5)"/>
        <circle id="Ellipse_2726" data-name="Ellipse 2726" cx="0.6" cy="0.6" r="0.6" transform="translate(80.7 189.8)"/>
        <circle id="Ellipse_2727" data-name="Ellipse 2727" cx="0.4" cy="0.4" r="0.4" transform="translate(86 190)"/>
        <circle id="Ellipse_2728" data-name="Ellipse 2728" cx="0.2" cy="0.2" r="0.2" transform="translate(91.3 190.2)"/>
        <circle id="Ellipse_2729" data-name="Ellipse 2729" cx="0.1" cy="0.1" r="0.1" transform="translate(96.6 190.3)"/>
        <circle id="Ellipse_2730" data-name="Ellipse 2730" transform="translate(101.8 190.4)"/>
        <circle id="Ellipse_2731" data-name="Ellipse 2731" cx="0.1" cy="0.1" r="0.1" transform="translate(-8.8 195.4)"/>
        <circle id="Ellipse_2732" data-name="Ellipse 2732" cx="0.2" cy="0.2" r="0.2" transform="translate(-3.8 195.3)"/>
        <circle id="Ellipse_2733" data-name="Ellipse 2733" cx="0.3" cy="0.3" r="0.3" transform="translate(1.2 195.2)"/>
        <circle id="Ellipse_2734" data-name="Ellipse 2734" cx="0.5" cy="0.5" r="0.5" transform="translate(6.2 195)"/>
        <circle id="Ellipse_2735" data-name="Ellipse 2735" cx="0.7" cy="0.7" r="0.7" transform="translate(11.1 194.8)"/>
        <circle id="Ellipse_2736" data-name="Ellipse 2736" cx="0.9" cy="0.9" r="0.9" transform="translate(16.1 194.6)"/>
        <circle id="Ellipse_2737" data-name="Ellipse 2737" cx="1.1" cy="1.1" r="1.1" transform="translate(21 194.4)"/>
        <circle id="Ellipse_2738" data-name="Ellipse 2738" cx="1.2" cy="1.2" r="1.2" transform="translate(26.1 194.3)"/>
        <circle id="Ellipse_2739" data-name="Ellipse 2739" cx="1.3" cy="1.3" r="1.3" transform="translate(31.1 194.2)"/>
        <circle id="Ellipse_2740" data-name="Ellipse 2740" cx="1.4" cy="1.4" r="1.4" transform="translate(36.1 194.1)"/>
        <circle id="Ellipse_2741" data-name="Ellipse 2741" cx="1.4" cy="1.4" r="1.4" transform="translate(41.3 194.1)"/>
        <circle id="Ellipse_2742" data-name="Ellipse 2742" cx="1.4" cy="1.4" r="1.4" transform="translate(46.4 194.1)"/>
        <circle id="Ellipse_2743" data-name="Ellipse 2743" cx="1.3" cy="1.3" r="1.3" transform="translate(51.7 194.2)"/>
        <circle id="Ellipse_2744" data-name="Ellipse 2744" cx="1.1" cy="1.1" r="1.1" transform="translate(57 194.4)"/>
        <circle id="Ellipse_2745" data-name="Ellipse 2745" cx="0.9" cy="0.9" r="0.9" transform="translate(62.4 194.6)"/>
        <circle id="Ellipse_2746" data-name="Ellipse 2746" cx="0.8" cy="0.8" r="0.8" transform="translate(67.6 194.7)"/>
        <circle id="Ellipse_2747" data-name="Ellipse 2747" cx="0.6" cy="0.6" r="0.6" transform="translate(72.9 194.9)"/>
        <circle id="Ellipse_2748" data-name="Ellipse 2748" cx="0.4" cy="0.4" r="0.4" transform="translate(78.3 195.1)"/>
        <circle id="Ellipse_2749" data-name="Ellipse 2749" cx="0.2" cy="0.2" r="0.2" transform="translate(83.6 195.3)"/>
        <circle id="Ellipse_2750" data-name="Ellipse 2750" cx="0.1" cy="0.1" r="0.1" transform="translate(88.9 195.4)"/>
        <circle id="Ellipse_2751" data-name="Ellipse 2751" transform="translate(94.1 195.5)"/>
        <circle id="Ellipse_2752" data-name="Ellipse 2752" transform="translate(-6.2 200.6)"/>
        <circle id="Ellipse_2753" data-name="Ellipse 2753" cx="0.1" cy="0.1" r="0.1" transform="translate(-1.1 200.5)"/>
        <circle id="Ellipse_2754" data-name="Ellipse 2754" cx="0.2" cy="0.2" r="0.2" transform="translate(3.9 200.4)"/>
        <circle id="Ellipse_2755" data-name="Ellipse 2755" cx="0.3" cy="0.3" r="0.3" transform="translate(9 200.3)"/>
        <circle id="Ellipse_2756" data-name="Ellipse 2756" cx="0.5" cy="0.5" r="0.5" transform="translate(13.9 200.1)"/>
        <circle id="Ellipse_2757" data-name="Ellipse 2757" cx="0.6" cy="0.6" r="0.6" transform="translate(18.9 200)"/>
        <circle id="Ellipse_2758" data-name="Ellipse 2758" cx="0.7" cy="0.7" r="0.7" transform="translate(24 199.9)"/>
        <circle id="Ellipse_2759" data-name="Ellipse 2759" cx="0.8" cy="0.8" r="0.8" transform="translate(29 199.8)"/>
        <circle id="Ellipse_2760" data-name="Ellipse 2760" cx="0.9" cy="0.9" r="0.9" transform="translate(34.1 199.7)"/>
        <circle id="Ellipse_2761" data-name="Ellipse 2761" cx="0.9" cy="0.9" r="0.9" transform="translate(39.2 199.7)"/>
        <circle id="Ellipse_2762" data-name="Ellipse 2762" cx="0.9" cy="0.9" r="0.9" transform="translate(44.4 199.7)"/>
        <circle id="Ellipse_2763" data-name="Ellipse 2763" cx="0.9" cy="0.9" r="0.9" transform="translate(49.5 199.7)"/>
        <circle id="Ellipse_2764" data-name="Ellipse 2764" cx="0.8" cy="0.8" r="0.8" transform="translate(54.7 199.8)"/>
        <circle id="Ellipse_2765" data-name="Ellipse 2765" cx="0.7" cy="0.7" r="0.7" transform="translate(60 199.9)"/>
        <circle id="Ellipse_2766" data-name="Ellipse 2766" cx="0.6" cy="0.6" r="0.6" transform="translate(65.2 200)"/>
        <circle id="Ellipse_2767" data-name="Ellipse 2767" cx="0.4" cy="0.4" r="0.4" transform="translate(70.6 200.2)"/>
        <circle id="Ellipse_2768" data-name="Ellipse 2768" cx="0.3" cy="0.3" r="0.3" transform="translate(75.8 200.3)"/>
        <circle id="Ellipse_2769" data-name="Ellipse 2769" cx="0.2" cy="0.2" r="0.2" transform="translate(81.1 200.4)"/>
        <circle id="Ellipse_2770" data-name="Ellipse 2770" cx="0.1" cy="0.1" r="0.1" transform="translate(86.3 200.5)"/>
        <circle id="Ellipse_2771" data-name="Ellipse 2771" transform="translate(91.5 200.6)"/>
        <circle id="Ellipse_2772" data-name="Ellipse 2772" transform="translate(-3.6 205.8)"/>
        <circle id="Ellipse_2773" data-name="Ellipse 2773" cx="0.1" cy="0.1" r="0.1" transform="translate(1.4 205.7)"/>
        <circle id="Ellipse_2774" data-name="Ellipse 2774" cx="0.1" cy="0.1" r="0.1" transform="translate(6.6 205.7)"/>
        <circle id="Ellipse_2775" data-name="Ellipse 2775" cx="0.2" cy="0.2" r="0.2" transform="translate(11.6 205.6)"/>
        <circle id="Ellipse_2776" data-name="Ellipse 2776" cx="0.3" cy="0.3" r="0.3" transform="translate(16.7 205.5)"/>
        <circle id="Ellipse_2777" data-name="Ellipse 2777" cx="0.4" cy="0.4" r="0.4" transform="translate(21.7 205.4)"/>
        <circle id="Ellipse_2778" data-name="Ellipse 2778" cx="0.5" cy="0.5" r="0.5" transform="translate(26.8 205.3)"/>
        <circle id="Ellipse_2779" data-name="Ellipse 2779" cx="0.5" cy="0.5" r="0.5" transform="translate(31.9 205.3)"/>
        <circle id="Ellipse_2780" data-name="Ellipse 2780" cx="0.5" cy="0.5" r="0.5" transform="translate(37 205.3)"/>
        <circle id="Ellipse_2781" data-name="Ellipse 2781" cx="0.5" cy="0.5" r="0.5" transform="translate(42.2 205.3)"/>
        <circle id="Ellipse_2782" data-name="Ellipse 2782" cx="0.5" cy="0.5" r="0.5" transform="translate(47.3 205.3)"/>
        <circle id="Ellipse_2783" data-name="Ellipse 2783" cx="0.4" cy="0.4" r="0.4" transform="translate(52.6 205.4)"/>
        <circle id="Ellipse_2784" data-name="Ellipse 2784" cx="0.4" cy="0.4" r="0.4" transform="translate(57.7 205.4)"/>
        <circle id="Ellipse_2785" data-name="Ellipse 2785" cx="0.3" cy="0.3" r="0.3" transform="translate(63 205.5)"/>
        <circle id="Ellipse_2786" data-name="Ellipse 2786" cx="0.2" cy="0.2" r="0.2" transform="translate(68.2 205.6)"/>
        <circle id="Ellipse_2787" data-name="Ellipse 2787" cx="0.1" cy="0.1" r="0.1" transform="translate(73.4 205.7)"/>
        <circle id="Ellipse_2788" data-name="Ellipse 2788" transform="translate(78.7 205.8)"/>
        <circle id="Ellipse_2789" data-name="Ellipse 2789" transform="translate(9.3 210.9)"/>
        <circle id="Ellipse_2790" data-name="Ellipse 2790" cx="0.1" cy="0.1" r="0.1" transform="translate(14.3 210.8)"/>
        <circle id="Ellipse_2791" data-name="Ellipse 2791" cx="0.1" cy="0.1" r="0.1" transform="translate(19.4 210.8)"/>
        <circle id="Ellipse_2792" data-name="Ellipse 2792" cx="0.2" cy="0.2" r="0.2" transform="translate(24.5 210.7)"/>
        <circle id="Ellipse_2793" data-name="Ellipse 2793" cx="0.2" cy="0.2" r="0.2" transform="translate(29.6 210.7)"/>
        <circle id="Ellipse_2794" data-name="Ellipse 2794" cx="0.2" cy="0.2" r="0.2" transform="translate(34.8 210.7)"/>
        <circle id="Ellipse_2795" data-name="Ellipse 2795" cx="0.2" cy="0.2" r="0.2" transform="translate(39.9 210.7)"/>
        <circle id="Ellipse_2796" data-name="Ellipse 2796" cx="0.2" cy="0.2" r="0.2" transform="translate(45.1 210.7)"/>
        <circle id="Ellipse_2797" data-name="Ellipse 2797" cx="0.2" cy="0.2" r="0.2" transform="translate(50.2 210.7)"/>
        <circle id="Ellipse_2798" data-name="Ellipse 2798" cx="0.2" cy="0.2" r="0.2" transform="translate(55.3 210.7)"/>
        <circle id="Ellipse_2799" data-name="Ellipse 2799" cx="0.1" cy="0.1" r="0.1" transform="translate(60.6 210.8)"/>
        <circle id="Ellipse_2800" data-name="Ellipse 2800" cx="0.1" cy="0.1" r="0.1" transform="translate(65.7 210.8)"/>
        <circle id="Ellipse_2801" data-name="Ellipse 2801" transform="translate(71 210.9)"/>
        <circle id="Ellipse_2802" data-name="Ellipse 2802" transform="translate(22.1 216.1)"/>
        <circle id="Ellipse_2803" data-name="Ellipse 2803" transform="translate(27.3 216.1)"/>
        <circle id="Ellipse_2804" data-name="Ellipse 2804" transform="translate(32.4 216.1)"/>
        <circle id="Ellipse_2805" data-name="Ellipse 2805" transform="translate(37.5 216.1)"/>
        <circle id="Ellipse_2806" data-name="Ellipse 2806" transform="translate(42.7 216.1)"/>
        <circle id="Ellipse_2807" data-name="Ellipse 2807" transform="translate(47.8 216.1)"/>
        <circle id="Ellipse_2808" data-name="Ellipse 2808" transform="translate(53 216.1)"/>
      </g>
      <g id="Group_125" data-name="Group 125" transform="translate(-4 2)">
        <g id="Group_124" data-name="Group 124">
          <path id="Path_93" data-name="Path 93" d="M46.6,183.2a13.158,13.158,0,0,1-7.1-2.1,16.086,16.086,0,0,1-20.8-5.8c-.4,0-.7.1-1.1.1-4.5,0-8.1-3.3-8.1-7.3a6.388,6.388,0,0,1,.6-2.8,15.26,15.26,0,0,1-5.8-11.9c0-6.9,4.9-12.9,12-15.3h0c0-4.3,3.9-7.8,8.7-7.8a11.02,11.02,0,0,1,1.8.2c3.7-4.6,10.4-7.5,17.8-7.5,1.2,0,2.5.1,3.7.2a12.278,12.278,0,0,1,9.1-3.8,11.78,11.78,0,0,1,10.5,5.8h.7c10.1,0,18.3,7.2,18.4,16.1,4.8,2.6,7.7,7.1,7.7,12,0,7-5.9,12.9-13.8,14-3.9,6.9-12,11.2-21,11.2-1.1,0-2.3-.1-3.4-.2A11.9,11.9,0,0,1,46.6,183.2Zm-6.4-9.7,1.8,1.9a6.588,6.588,0,0,0,4.6,1.8c2.5,0,4.8-1.3,5.5-3.2l.9-2.5,2.6.6a21.184,21.184,0,0,0,4.4.5c7.3,0,13.8-3.7,16.4-9.3l.8-1.7,1.8-.1c5.5-.3,9.8-3.9,9.8-8.2,0-3.1-2.3-6-5.9-7.4l-2.2-.9.4-2.4a5.739,5.739,0,0,0,.1-1.2c0-5.7-5.6-10.3-12.4-10.3a17.961,17.961,0,0,0-2.2.2l-2.8.4L63,129c-.4-2-2.8-3.6-5.6-3.6a5.96,5.96,0,0,0-5.2,2.6l-1.1,1.9-2.1-.4a21.192,21.192,0,0,0-4.4-.4c-6.3,0-11.9,2.6-14,6.4l-1.4,2.6-2.6-1.4a2.934,2.934,0,0,0-1.6-.4c-1.6,0-2.7.9-2.7,1.8a1.421,1.421,0,0,0,.2.6l2.4,3.8-4.5.7c-5.8.9-10.1,5.2-10.1,10.1,0,3.5,2.1,6.7,5.7,8.6l4.5,2.4L16.2,167c-.2.1-.7.5-.7.9,0,.6.9,1.3,2.1,1.3a3.079,3.079,0,0,0,1.3-.3l2.8-1.4,1.2,2.9a10.27,10.27,0,0,0,9.3,6.2,9.958,9.958,0,0,0,5.8-1.8Z" fill="#231f20"/>
        </g>
        <path id="Path_94" data-name="Path 94" d="M93.2,151.9c0-4.5-3.2-8.4-7.9-10.2a9.7,9.7,0,0,0,.1-1.7c0-7.4-6.9-13.3-15.4-13.3a24.519,24.519,0,0,0-2.7.2c-.7-3.4-4.2-6-8.5-6A9.022,9.022,0,0,0,51,125a27.341,27.341,0,0,0-5-.5c-7.6,0-14.1,3.3-16.6,8a6.04,6.04,0,0,0-3-.7c-3.1,0-5.7,2.1-5.7,4.8a3.408,3.408,0,0,0,.7,2.2c-7.2,1.1-12.6,6.6-12.6,13.1,0,4.8,2.9,8.9,7.2,11.3a4.041,4.041,0,0,0-2.1,3.5c0,2.4,2.3,4.3,5.1,4.3a5.834,5.834,0,0,0,2.6-.6,13.187,13.187,0,0,0,12.1,8,13.826,13.826,0,0,0,7.5-2.3,9.247,9.247,0,0,0,6.8,2.8c4,0,7.3-2.2,8.3-5.2a27.561,27.561,0,0,0,5.1.5c8.7,0,16.2-4.6,19.1-11C87.6,162.7,93.2,157.8,93.2,151.9Z" fill="#fff"/>
      </g>
    </g>
    <text id="Tjiftjaf_" data-name="Tjiftjaf?" transform="translate(932 10656) rotate(-6)" font-size="16" font-family="UniSansHeavy"><tspan x="0" y="0">Tjiftjaf?</tspan></text>
  </g>
</svg>
